<?xml version="1.0" encoding="UTF-8" standalone="no"?>
<svg
   xmlns:dc="http://purl.org/dc/elements/1.1/"
   xmlns:cc="http://creativecommons.org/ns#"
   xmlns:rdf="http://www.w3.org/1999/02/22-rdf-syntax-ns#"
   xmlns:svg="http://www.w3.org/2000/svg"
   xmlns="http://www.w3.org/2000/svg"
   xml:space="preserve"
   enable-background="new 0 0 443.521 276.084"
   viewBox="0 0 422 254.99999"
   height="255"
   width="422"
   y="0px"
   x="0px"
   id="レイヤー_1"
   version="1.1"><metadata
   id="metadata1144"><rdf:RDF><cc:Work
       rdf:about=""><dc:format>image/svg+xml</dc:format><dc:type
         rdf:resource="http://purl.org/dc/dcmitype/StillImage" /><dc:title></dc:title></cc:Work></rdf:RDF></metadata><defs
   id="defs1142" />
<g
   transform="translate(-6.938,-20.834)"
   id="XMLID_2_">
	<g
   id="g1134">
		<path
   style="fill:#0060b0"
   id="path1132"
   d="m 393.438,52.834 c 11.83,0 23.67,0 35.5,0 -6.4,1.65 -7.43,7.93 -7,16 1.65,31.04 2.14,72.24 3.5,103 -9.5,0 -19,0 -28.5,0 -0.12,-7.75 -0.14,-16.86 -0.5,-25 -11.17,0 -22.33,0 -33.5,0 -5.7,7.97 -10.27,17.06 -16,25 -20.17,0 -40.33,0 -60.5,0 -2.52,-11.47 -4.39,-23.61 -7,-35 -9.1,9.93 -18.71,23.85 -28.5,35 -10.17,0 -21.52,0 -31.69,0 0,0 2.641,-3.18 3.69,-4.5 8.32,-10.46 17.85,-22.61 26,-33.5 -15.5,6.67 -29.83,14.51 -44.5,22 -3.56,28.94 -7.24,57.77 -10.5,87 -12.37,-19.46 -25.22,-38.44 -41,-54.5 -34.46,23.59 -66.67,49.89 -93,82 -1.61,1.96 -3.15,5 -6,5.5 23.81,-38.18 52.98,-71.01 88,-98 -5.08,-4.88 -10.5,-9.08 -16.25,-13.46 -3.09,2.49 -14.13,17.46 -14.5,17.58 0,0 -0.13,-0.12 -1.25,-0.12 3.87,-6.79 8.74,-12.96 13.33,-19.04 -5.37,-4.17 -12.61,-7.67 -18.83,-11.46 -13.96,18.86 -46.74,32.21 -79.5,22 l 0.88,-3.19 c 0,0 5.25,0.681 7.62,0.69 21.79,0.09 36.93,-14.73 46,-29 -21.61,-7.39 -45.69,-12.3 -72.5,-14.5 l 0.92,-1.67 c 23.16,-0.25 55.05,4.82 75.08,9.67 0,0 3.64,-5.9 5,-9 9.43,-21.44 15.96,-48.46 22.5,-73 11.83,0 23.67,0 35.5,0 1.7,0.19 -1.02,1.55 -1.5,2 -5.21,4.92 -6.72,16.22 -9.5,25.5 -6.64,22.2 -13.93,46.86 -25.5,63.5 6.18,3.32 13.16,5.84 19,9.5 9.4,-12.6 18.25,-25.75 27,-39 -1,0.12 -20.88,1 -25.5,1.5 0.54,-1.87 1.24,-4.07 1.5,-6 9.22,-0.6 18.41,-1.25 28,-1.5 20.81,-28.85 40.68,-58.65 61,-88 -2.47,27.2 -6.59,56.91 -9.83,85 17.66,-1 35.19,-1.97 52.83,-3 -1.75,-9.12 -9.5,-40.88 -11.5,-50 13.83,0 27.67,0 41.5,0 -12.77,3.03 -2.58,24.6 -2.5,36 5.03,-5.28 8.44,-11.93 12.5,-18 4.09,-6.1 8.8,-11.75 12.5,-18 13,0 26,0 39,0 -7.79,2.55 -12.01,8.43 -17,15 -7.75,10.22 -15.84,21.57 -23.5,32 13.83,-0.34 26.72,-1.61 40.5,-2 -17.38,4.29 -33.88,8.5 -50.5,14.5 4.63,18.87 9.75,37.26 14.5,56 25.139,-38.19 49.37,-77.29 74.5,-115.5 z m -18.5,72.5 c 7.33,0 14.67,0 22,0 -0.12,-3 -0.19,-25.44 -0.5,-36 -7.201,11.97 -14.51,23.83 -21.5,36 z m -167.5,11 c 20.96,-10.86 44.44,-19.23 69,-26.5 -22.23,1.11 -44.49,1.59 -66.58,2.83 -0.84,7.92 -1.751,15.92 -2.42,23.67 z m -18,-29.5 c 1.17,-10.08 1.92,-20.08 3,-29 -7.72,10.29 -15.84,20.17 -23.5,30.5 7.5,-0.5 14.25,-1.08 20.5,-1.5 z m -5.5,42 c 1.5,-12.17 2.77,-23.55 4.5,-35 -8.48,0.02 -16.74,0.26 -24.5,1 -10.92,13.42 -21.44,27.23 -32,41 7.5,3.75 14.04,8.83 20.5,13.5 10.31,-7.02 20.549,-14.11 31.5,-20.5 z m -6.5,47.5 c 0.94,-8.55 2.75,-24.17 3,-26.5 -5.5,4 -11.54,6.8 -16.5,11 5.299,4.37 8.95,10.39 13.5,15.5 z" />
	</g>
	<g
   id="g1136">
	</g>
</g>
</svg>