<?xml version="1.0" encoding="UTF-8" standalone="no"?><!DOCTYPE svg PUBLIC "-//W3C//DTD SVG 1.1//EN" "http://www.w3.org/Graphics/SVG/1.1/DTD/svg11.dtd"><svg width="100%" height="100%" viewBox="0 0 800 800" version="1.1" xmlns="http://www.w3.org/2000/svg" xmlns:xlink="http://www.w3.org/1999/xlink" xml:space="preserve" xmlns:serif="http://www.serif.com/" style="fill-rule:evenodd;clip-rule:evenodd;stroke-linejoin:round;stroke-miterlimit:1.41421;"><rect id="dark" x="0" y="0" width="800" height="800" style="fill:none;"/><rect x="0" y="0" width="800" height="800" style="fill:#004170;"/><g><path d="M615.701,615.701l0,-431.402l-431.402,0l0,78.485l-26.415,0l0,-104.9l484.232,0l0,484.232l-484.232,0l0,-90.674l26.415,0l0,64.259l431.402,0Z" style="fill:#fff;"/><g><path d="M563.672,426.326c-1.515,16.098 -7.458,28.661 -17.823,37.673c-10.364,9.02 -24.154,13.526 -41.355,13.526c-12.027,0 -22.616,-2.851 -31.769,-8.546c-9.152,-5.703 -16.222,-13.806 -21.194,-24.31c-4.98,-10.504 -7.567,-22.702 -7.777,-36.585l0,-14.101c0,-14.233 2.525,-26.773 7.567,-37.619c5.042,-10.853 12.283,-19.213 21.715,-25.087c9.432,-5.873 20.332,-8.81 32.701,-8.81c16.649,0 30.059,4.514 40.213,13.526c10.163,9.02 16.067,21.785 17.722,38.303l-26.112,0c-1.251,-10.854 -4.406,-18.678 -9.487,-23.479c-5.081,-4.801 -12.524,-7.202 -22.336,-7.202c-11.405,0 -20.161,4.164 -26.276,12.501c-6.114,8.336 -9.237,20.557 -9.377,36.67l0,13.387c0,16.323 2.921,28.769 8.756,37.346c5.842,8.578 14.388,12.866 25.654,12.866c10.294,0 18.032,-2.315 23.214,-6.946c5.182,-4.63 8.469,-12.337 9.852,-23.113l26.112,0Z" style="fill:#fff;fill-rule:nonzero;"/><path d="M246.088,408.084l-61.983,0l0,46.429l72.448,0l0,20.938l-98.669,0l0,-150.91l97.946,0l0,21.148l-71.725,0l0,41.667l61.983,0l0,20.728Z" style="fill:#fff;fill-rule:nonzero;"/><path d="M293.873,475.451l0,-150.91l44.565,0c13.339,0 25.172,2.976 35.497,8.912c10.333,5.943 18.328,14.373 23.999,25.296c5.664,10.916 8.5,23.425 8.5,37.518l0,7.567c0,14.303 -2.852,26.882 -8.554,37.727c-5.703,10.846 -13.822,19.206 -24.357,25.079c-10.535,5.874 -22.616,8.811 -36.228,8.811l-43.422,0Zm26.221,-129.762l0,108.824l17.1,0c13.752,0 24.303,-4.297 31.668,-12.897c7.357,-8.608 11.102,-20.954 11.242,-37.059l0,-8.391c0,-16.378 -3.558,-28.886 -10.675,-37.525c-7.117,-8.632 -17.45,-12.952 -30.991,-12.952l-18.344,0Z" style="fill:#fff;fill-rule:nonzero;"/></g></g></svg>