<?xml version="1.0" encoding="UTF-8" standalone="no"?>
<svg
   xmlns:dc="http://purl.org/dc/elements/1.1/"
   xmlns:cc="http://creativecommons.org/ns#"
   xmlns:rdf="http://www.w3.org/1999/02/22-rdf-syntax-ns#"
   xmlns:svg="http://www.w3.org/2000/svg"
   xmlns="http://www.w3.org/2000/svg"
   height="25.6"
   width="132.8"
   xml:space="preserve"
   viewBox="0 0 132.80001 25.6"
   y="0px"
   x="0px"
   id="Layer_1"
   version="1.1"><metadata
   id="metadata419"><rdf:RDF><cc:Work
       rdf:about=""><dc:format>image/svg+xml</dc:format><dc:type
         rdf:resource="http://purl.org/dc/dcmitype/StillImage" /><dc:title></dc:title></cc:Work></rdf:RDF></metadata><defs
   id="defs417" />
<style
   id="style260"
   type="text/css">
	.st0{fill:#0058A2;stroke:#FFFFFF;stroke-width:8.905629e-02;}
	.st1{fill:#FFFFFF;}
	.st2{fill:#E73137;}
</style>
<g
   transform="translate(-4.4,-16.9)"
   id="g398">
	<path
   id="path262"
   d="m 28.2,28.1 c 0,6.2 -5.1,11.2 -11.2,11.2 -6.2,0 -11.2,-5.1 -11.2,-11.2 0,-6.2 5,-11.2 11.2,-11.2 6,0 11.2,5.1 11.2,11.2 z"
   class="st0" />
	<path
   style="fill:#ffffff"
   id="path264"
   d="m 19.5,34 c 4.8,2 4,-3 1.4,-6.8 -1.5,-2.2 -3.3,-4 -4.5,-4.8 -4,-2.9 -6.4,-1.1 -3.6,4.6 0.9,1.8 2.1,3.1 3,4.3 0.7,0.9 2,1.3 1.6,1.8 -0.5,0.5 -1.8,-1.6 -1.8,-1.6 -1,-1.2 -1.9,-2.4 -2.8,-4.1 -2.1,-3.9 -1.8,-7.8 2,-6.1 3.3,1.5 6.5,5.5 7.7,8.4 0.5,1.2 2.1,6.5 -3,4.3"
   class="st1" />
	<path
   style="fill:#e73137"
   id="path266"
   d="M 4.6,31.4 C 6.7,30 8.7,29.1 12.1,28 c 4.8,-1.6 8.4,-2.6 12.8,-4.9 2,-1 5.4,-3.2 6.6,-5.2 -0.4,0.8 -1.5,2.2 -2,2.9 -6,7.5 -18.7,7.1 -24.9,10.6"
   class="st2" />
	<path
   style="fill:#ffffff"
   id="path268"
   d="m 7.6,26 c 1.9,0 1.7,0 1.8,0 0,0 1.5,2.6 1.5,2.6 0,0 0,-0.9 0,-2.1 0,-0.1 -0.4,-0.5 -0.4,-0.5 0.6,0 1.3,0 1.3,0 -0.3,0.3 -0.3,0.3 -0.3,0.5 0,0.6 0,1.8 0,3.1 0,0.2 0.1,0.3 0.4,0.6 h -1.8 c -0.6,-1 -1.6,-2.8 -1.6,-2.7 0,0 0,1.1 0,2 0,0.3 0.1,0.4 0.4,0.7 0,0 0.3,0 -1.4,0 C 8,29.8 8,29.5 8,29.5 8,28.3 8,27.2 8,26.5 8,26.4 8,26.4 7.6,26"
   class="st1" />
	<g
   id="g272">
		<path
   style="fill:#ffffff"
   id="path270"
   d="m 13.7,27.9 c 0.2,-0.6 0.3,-1.1 0.4,-1.4 0,-0.1 -0.1,-0.3 -0.3,-0.5 v 0 c 1,0 2.1,0 2.1,0 0.3,0.7 0.9,2.6 1.4,3.8 0.1,0.3 0.3,0.4 0.3,0.4 -0.9,0 -2.5,0 -2.5,0 0.4,-0.4 0.4,-0.4 0.2,-1 h -1.4 c -0.3,0.7 0.1,1 0.1,1 -0.3,0 -1.4,0 -1.4,0 0.6,-0.4 0.5,-0.5 0.5,-0.5 0.2,-0.7 0.4,-1.3 0.6,-1.8 h 0.6 c -0.1,0.4 -0.2,0.8 -0.2,0.8 h 1.1 l -0.6,-1.6 c 0,0 -0.1,0.4 -0.2,0.8 z"
   class="st1" />
	</g>
	<g
   id="g276">
		<path
   style="fill:#ffffff"
   id="path274"
   d="m 23.1,27.9 c 0.2,-0.6 0.3,-1.1 0.4,-1.4 0,-0.1 -0.1,-0.3 -0.3,-0.5 v 0 c 1,0 2.1,0 2.1,0 0.3,0.7 0.9,2.6 1.4,3.8 0.1,0.3 0.3,0.4 0.3,0.4 -0.9,0 -2.5,0 -2.5,0 0.4,-0.4 0.4,-0.4 0.2,-1 h -1.4 c -0.3,0.7 0.1,1 0.1,1 -0.3,0 -1.4,0 -1.4,0 0.6,-0.4 0.5,-0.5 0.5,-0.5 0.3,-0.6 0.5,-1.2 0.6,-1.8 h 0.6 c -0.1,0.4 -0.2,0.8 -0.2,0.8 h 1.1 L 24,27.1 c 0,0 -0.1,0.4 -0.2,0.8 z"
   class="st1" />
	</g>
	<path
   style="fill:#ffffff"
   id="path278"
   d="m 21.4,27 c 0,-0.8 0,-1.1 0,-1.1 -0.3,0.3 -0.2,0.2 -1,0.1 -2.5,-0.4 -2.7,1.9 -1.3,2.5 1.2,0.4 1.6,0.5 1.4,0.9 -0.1,0.1 -1.1,0.6 -2.2,-0.4 v 1.4 c 0.1,-0.1 0.5,-0.4 0.5,-0.4 0,0 1.2,0.5 2.2,0 1.6,-0.8 0.8,-2.2 -0.9,-2.7 C 18.6,27 19.9,25.9 21.4,27"
   class="st1" />
	<path
   style="fill:#ffffff"
   id="path280"
   d="m 17.1,17.9 c 0,0.1 0,0.1 0,0 C 17,18 17,18 17,17.9 c 0,0 0,-0.1 0.1,0 0,-0.1 0,0 0,0 z"
   class="st1" />
	<path
   style="fill:#ffffff"
   id="path282"
   d="m 17.8,19.3 c 0,0.1 -0.1,0.1 -0.1,0.1 -0.1,0 -0.1,-0.1 -0.1,-0.1 0,0 0.1,-0.1 0.1,-0.1 0,0 0.1,0 0.1,0.1 z"
   class="st1" />
	<path
   style="fill:#ffffff"
   id="path284"
   d="m 19.4,21.6 c 0,0.1 -0.1,0.1 -0.1,0.1 -0.1,0 -0.1,-0.1 -0.1,-0.1 0,-0.1 0,-0.1 0.1,-0.1 0.1,-0.1 0.1,0 0.1,0.1 z"
   class="st1" />
	<path
   style="fill:#ffffff"
   id="path286"
   d="m 16.8,20.1 c 0,0 -0.1,0.1 0,0 -0.1,0.1 -0.2,0.1 -0.2,0 0,-0.1 0,-0.1 0.2,0 -0.1,-0.1 0,-0.1 0,0 z"
   class="st1" />
	<path
   style="fill:#ffffff"
   id="path288"
   d="m 17.8,20.6 c 0,0 -0.1,0.1 0,0 -0.1,0.1 -0.2,0.1 -0.2,0 0,-0.1 0,-0.1 0.2,0 -0.1,-0.1 0,-0.1 0,0 z"
   class="st1" />
	<path
   style="fill:#ffffff"
   id="path290"
   d="m 16.5,19.1 c 0,0.1 -0.1,0.1 -0.1,0.1 -0.1,0 -0.1,-0.1 -0.1,-0.1 0,-0.1 0.1,-0.1 0.1,-0.1 0,0 0.1,0.1 0.1,0.1 z"
   class="st1" />
	<path
   style="fill:#ffffff"
   id="path292"
   d="m 15,20 c 0,0.1 -0.1,0.1 0,0 -0.1,0.1 -0.2,0.1 -0.2,0 0,0 0,0 0.2,0 -0.1,0 0,0 0,0 z"
   class="st1" />
	<path
   style="fill:#ffffff"
   id="path294"
   d="m 15.2,20.2 c 0,0.1 0,0.1 0,0 -0.1,0.1 -0.2,0.1 -0.2,0 0.1,0 0.1,-0.1 0.2,0 0,-0.1 0,0 0,0 z"
   class="st1" />
	<path
   style="fill:#ffffff"
   id="path296"
   d="m 15.5,20.4 c 0,0.1 0,0.1 0,0 -0.1,0.1 -0.2,0.1 -0.2,0 0,0 0.1,-0.1 0.2,0 0,-0.1 0,0 0,0 z"
   class="st1" />
	<path
   style="fill:#ffffff"
   id="path298"
   d="m 15.1,20.8 c 0,0 0,0.1 0,0 -0.1,0.1 -0.2,0.1 -0.2,0 0,-0.1 0.1,-0.1 0.2,0 0,-0.1 0,-0.1 0,0 z"
   class="st1" />
	<path
   style="fill:#ffffff"
   id="path300"
   d="m 13,22.3 c 0,0 -0.1,0 0,0 -0.1,0.1 -0.2,0.1 -0.2,0 0,-0.1 0,-0.1 0.2,0 -0.1,-0.1 0,-0.1 0,0 z"
   class="st1" />
	<path
   style="fill:#ffffff"
   id="path302"
   d="m 13.4,22.7 c 0,0.1 -0.1,0.1 0,0 -0.1,0.1 -0.2,0.1 -0.2,0 0,0 0,-0.1 0.2,0 -0.1,-0.1 0,0 0,0 z"
   class="st1" />
	<path
   style="fill:#ffffff"
   id="path304"
   d="m 13.1,30.5 c 0,0 -0.1,0.1 0,0 -0.1,0.1 -0.2,0.1 -0.2,0 0,-0.1 0,-0.1 0.2,0 -0.1,-0.1 0,-0.1 0,0 z"
   class="st1" />
	<path
   style="fill:#ffffff"
   id="path306"
   d="m 13.1,32.6 c 0,0.1 -0.1,0.1 -0.1,0.1 -0.1,0 -0.1,-0.1 -0.1,-0.1 0,-0.1 0.1,-0.1 0.1,-0.1 0.1,0 0.1,0 0.1,0.1 z"
   class="st1" />
	<path
   style="fill:#ffffff"
   id="path308"
   d="m 11.9,33.7 c 0,0 0,0.1 0,0 -0.1,0.1 -0.2,0.1 -0.2,0 0,-0.1 0.1,-0.1 0.2,0 0,-0.1 0,-0.1 0,0 z"
   class="st1" />
	<path
   style="fill:#ffffff"
   id="path310"
   d="m 10.5,34.1 c 0,0.1 -0.1,0.1 -0.1,0.1 -0.1,0 -0.1,-0.1 -0.1,-0.1 0,-0.1 0.1,-0.1 0.1,-0.1 0,0 0.1,0.1 0.1,0.1 z"
   class="st1" />
	<path
   style="fill:#ffffff"
   id="path312"
   d="m 10.2,33.1 c 0,0.1 -0.1,0.1 -0.1,0.1 -0.1,0 -0.1,-0.1 -0.1,-0.1 -0.1,0 0,-0.1 0,-0.1 0.1,0 0.2,0.1 0.2,0.1 z"
   class="st1" />
	<path
   style="fill:#ffffff"
   id="path314"
   d="m 10,33.8 c 0,0 -0.1,0.1 0,0 -0.1,0.1 -0.2,0.1 -0.2,0 0,-0.1 0,-0.1 0.2,0 -0.1,-0.1 0,-0.1 0,0 z"
   class="st1" />
	<path
   style="fill:#ffffff"
   id="path316"
   d="m 8.9,33.2 c 0,0.1 0,0.1 0,0 -0.1,0.1 -0.2,0.1 -0.2,0 0,0 0.1,0 0.2,0 0,0 0,0 0,0 z"
   class="st1" />
	<path
   style="fill:#ffffff"
   id="path318"
   d="m 12.7,35 c 0,0.1 0,0.1 0,0 -0.1,0.1 -0.2,0.1 -0.2,0 0,0 0.1,-0.1 0.2,0 0,-0.1 0,0 0,0 z"
   class="st1" />
	<path
   style="fill:#ffffff"
   id="path320"
   d="m 13.8,34.2 c 0,0.1 0,0.1 -0.1,0.1 -0.1,0 -0.1,-0.1 -0.1,-0.1 0,-0.1 0.1,-0.1 0.1,-0.1 0.1,0 0.1,0 0.1,0.1 z"
   class="st1" />
	<path
   style="fill:#ffffff"
   id="path322"
   d="m 14,35.2 c 0,0.1 -0.1,0.1 0,0 -0.1,0.1 -0.2,0.1 -0.2,0 0,0 0,0 0.2,0 -0.1,0 0,0 0,0 z"
   class="st1" />
	<path
   style="fill:#ffffff"
   id="path324"
   d="m 18.7,34.2 c 0,0.1 -0.1,0.1 0,0 -0.1,0.1 -0.2,0.1 -0.2,0 0,0 0,-0.1 0.2,0 -0.1,-0.1 0,0 0,0 z"
   class="st1" />
	<path
   style="fill:#ffffff"
   id="path326"
   d="m 16.5,35 c 0,0 -0.1,0.1 0,0 -0.1,0.1 -0.2,0.1 -0.2,0 0,-0.1 0,-0.1 0.2,0 -0.1,-0.1 0,-0.1 0,0 z"
   class="st1" />
	<path
   style="fill:#ffffff"
   id="path328"
   d="m 22.3,36.1 c 0,0.1 0,0.1 0,0 -0.1,0.1 -0.2,0.1 -0.2,0 0.1,0 0.1,-0.1 0.2,0 0,-0.1 0,0 0,0 z"
   class="st1" />
	<path
   style="fill:#ffffff"
   id="path330"
   d="m 22.8,31.8 c 0,0.1 -0.1,0.1 -0.1,0.1 -0.1,0 -0.1,-0.1 -0.1,-0.1 0,-0.1 0.1,-0.1 0.1,-0.1 0.1,0 0.1,0 0.1,0.1 z"
   class="st1" />
	<path
   style="fill:#ffffff"
   id="path332"
   d="m 21.9,32.4 c 0,0 0,0.1 0,0 -0.1,0.1 -0.2,0.1 -0.2,0 0,-0.1 0.1,-0.1 0.2,0 0,-0.1 0,-0.1 0,0 z"
   class="st1" />
	<path
   style="fill:#ffffff"
   id="path334"
   d="m 22.8,32.6 c 0,0.1 -0.1,0.1 -0.1,0.1 -0.1,0 -0.1,-0.1 -0.1,-0.1 0,-0.1 0.1,-0.1 0.1,-0.1 0.1,0 0.1,0 0.1,0.1 z"
   class="st1" />
	<path
   style="fill:#ffffff"
   id="path336"
   d="m 21.9,33.7 c 0,0 0,0 0,0 -0.1,0.1 -0.2,0.1 -0.2,0 0,-0.1 0.1,-0.1 0.2,0 0,-0.1 0,-0.1 0,0 z"
   class="st1" />
	<path
   style="fill:#ffffff"
   id="path338"
   d="m 24.2,31.2 c 0,0 0,0.1 0,0 -0.1,0.1 -0.2,0.1 -0.2,0 0,-0.1 0.1,-0.1 0.2,0 0,-0.1 0,-0.1 0,0 z"
   class="st1" />
	<path
   style="fill:#ffffff"
   id="path340"
   d="m 24.4,31.7 c 0,0.1 0,0.1 -0.1,0.1 -0.1,0 -0.1,-0.1 -0.1,-0.1 0,-0.1 0.1,-0.1 0.1,-0.1 0.1,0 0.1,0.1 0.1,0.1 z"
   class="st1" />
	<path
   style="fill:#ffffff"
   id="path342"
   d="m 26,32.4 c 0,0.1 -0.1,0.1 -0.1,0.1 -0.1,0 -0.1,-0.1 -0.1,-0.1 0,0 0.1,-0.1 0.1,-0.1 0.1,0 0.1,0 0.1,0.1 z"
   class="st1" />
	<path
   style="fill:#ffffff"
   id="path344"
   d="m 24.4,33.6 c 0,0 0,0 0,0 -0.1,0.1 -0.2,0.1 -0.2,0 0,-0.1 0.1,-0.1 0.2,0 0,-0.1 0,-0.1 0,0 z"
   class="st1" />
	<path
   style="fill:#ffffff"
   id="path346"
   d="m 25.4,32.6 c 0,0 0,0.1 0,0 -0.1,0.1 -0.2,0.1 -0.2,0 0.1,-0.1 0.1,-0.1 0.2,0 0,-0.1 0,-0.1 0,0 z"
   class="st1" />
	<path
   style="fill:#ffffff"
   id="path348"
   d="m 25.2,34.1 c 0,0 0,0.1 0,0 -0.1,0.1 -0.2,0.1 -0.2,0 0.1,-0.1 0.1,-0.1 0.2,0 0,-0.1 0,-0.1 0,0 z"
   class="st1" />
	<g
   id="g352">
		<circle
   style="fill:#ffffff"
   id="circle350"
   r="0.1"
   cy="31.6"
   cx="25.5"
   class="st1" />
	</g>
	<g
   id="g356">
		<polygon
   style="fill:#ffffff"
   id="polygon354"
   points="25.1,31.6 25.5,31.7 25.5,32.1 25.6,31.7 26,31.6 25.6,31.6 25.5,31.2 25.5,31.6 "
   class="st1" />
	</g>
	<g
   id="g360">
		<circle
   style="fill:#ffffff"
   id="circle358"
   r="0.1"
   cy="34.099998"
   cx="24.5"
   class="st1" />
	</g>
	<g
   id="g364">
		<polygon
   style="fill:#ffffff"
   id="polygon362"
   points="24.1,34.1 24.5,34.1 24.6,34.5 24.6,34.1 25,34.1 24.6,34 24.5,33.6 24.5,34 "
   class="st1" />
	</g>
	<g
   id="g368">
		<circle
   style="fill:#ffffff"
   id="circle366"
   r="0.1"
   cy="22.4"
   cx="14"
   class="st1" />
	</g>
	<g
   id="g372">
		<polygon
   style="fill:#ffffff"
   id="polygon370"
   points="13.6,22.4 14,22.5 14,22.9 14.1,22.5 14.5,22.4 14.1,22.4 14,22 14,22.4 "
   class="st1" />
	</g>
	<g
   id="g376">
		<path
   style="fill:#ffffff"
   id="path374"
   d="m 19.4,19 c 0,0.1 -0.1,0.1 -0.1,0.1 0,0 -0.1,-0.1 -0.1,-0.1 0,-0.1 0.1,-0.1 0.1,-0.1 0,0 0.1,0.1 0.1,0.1 z"
   class="st1" />
	</g>
	<g
   id="g380">
		<polygon
   style="fill:#ffffff"
   id="polygon378"
   points="18.9,19 19.2,19.1 19.3,19.5 19.3,19.1 19.7,19 19.3,19 19.3,18.6 19.2,19 "
   class="st1" />
	</g>
	<g
   id="g384">
		<path
   style="fill:#ffffff"
   id="path382"
   d="m 13,36.3 c 0,0.1 -0.1,0.1 -0.1,0.1 -0.1,0 -0.1,-0.1 -0.1,-0.1 0,-0.1 0.1,-0.1 0.1,-0.1 0.1,0 0.1,0 0.1,0.1 z"
   class="st1" />
	</g>
	<g
   id="g388">
		<polygon
   style="fill:#ffffff"
   id="polygon386"
   points="12.5,36.3 12.9,36.4 12.9,36.8 13,36.4 13.3,36.3 13,36.3 12.9,35.9 12.9,36.3 "
   class="st1" />
	</g>
	<path
   style="fill:#e73137"
   id="path390"
   d="m 31.6,18 c -1.7,5 -8.6,9 -14.4,12.7 -3.5,2.3 -6.9,4.9 -9.3,7.1 -0.6,0.6 0.1,-0.2 -0.1,0 3.3,-3.8 7.1,-6.1 9.3,-7.5 3.6,-2.4 5.6,-3 11.8,-8.7"
   class="st2" />
	<path
   style="fill:#e73137"
   id="path392"
   d="m 6,30.6 c -0.6,0.3 -1.2,0.6 -1.6,0.9 l 0.3,0.1 c 0.4,-0.3 0.9,-0.5 1.4,-0.7"
   class="st2" />
	<path
   style="fill:#e73137"
   id="path394"
   d="m 9.3,36.2 c -0.6,0.5 -1.1,1 -1.7,1.6 v 0.4 c 0.5,-0.5 1.2,-1.1 1.9,-1.8"
   class="st2" />
	<path
   style="fill:#ffffff"
   id="path396"
   d="m 19.5,34 c 4.8,2 4,-3 1.4,-6.8 -1.5,-2.2 -3.2,-3.9 -4.5,-4.8 -1.5,-1.1 -1.7,-1.2 -1.7,-1.2 3.4,1.6 6.5,5.5 7.7,8.4 0.6,1.3 2.2,6.6 -2.9,4.4"
   class="st1" />
</g>
<g
   transform="translate(-4.4,-16.9)"
   id="g410">
	<g
   id="g406">
		<path
   style="fill:#ffffff"
   id="path400"
   d="m 78.1,27.5 c -0.7,-0.1 -1.7,-0.2 -2.1,-0.7 -0.5,-0.7 0.1,-1.7 1.7,-1.6 1.4,0.1 1.6,1.2 1.6,1.6 h 2.1 c 0,-0.8 -0.3,-1.6 -0.8,-2.2 -0.6,-0.7 -2.1,-1.4 -4,-1.1 -1,0.1 -2.3,0.7 -2.8,2 -0.4,1.2 0,2.3 0.7,2.9 0.9,0.7 2.7,0.9 3.4,1.1 0.9,0.2 1.5,0.3 1.4,1.2 -0.1,1 -1.6,1.3 -2.6,0.9 -0.7,-0.2 -1,-0.8 -1.2,-1.6 h -2.2 c 0,1 0.6,2 1.2,2.5 0.9,0.7 1.9,1 3,1 1.5,0 2.8,-0.4 3.5,-1.5 0.4,-0.6 0.8,-1.9 0.1,-3.2 -0.4,-0.8 -1.8,-1.1 -3,-1.3 z"
   class="st1" />
		<path
   style="fill:#ffffff"
   id="path402"
   d="m 70.9,24.9 c -0.9,-1 -2.4,-1.6 -4,-1.3 -2.9,0.5 -3.7,3.3 -3.8,4.2 -0.2,1.7 0.2,4.5 3.2,5.6 1.4,0.5 3.1,0.3 4.5,-0.6 0.7,-0.6 1.5,-1.8 1.6,-2.6 h -2.5 c -0.1,0.3 -0.3,0.8 -0.7,1.1 -1,0.7 -2.1,0.2 -2.6,-0.1 -0.7,-0.6 -1,-1.5 -1,-2.8 0,-1.8 0.8,-2.9 2.3,-2.9 1.3,0 2.1,1.1 2,2 h -3.5 v 1.7 h 6.1 c 0,-1.5 -0.8,-3.3 -1.6,-4.3 z"
   class="st1" />
		<path
   style="fill:#ffffff"
   id="path404"
   d="m 91.4,31 c 0,-0.5 0,-2.5 0,-3 0,-0.5 -0.1,-1.5 -0.2,-2.3 -0.1,-0.5 -0.6,-1.3 -1.4,-1.7 -0.8,-0.4 -1.3,-0.4 -2.6,-0.4 -1.8,0 -3.8,0.6 -3.9,3.3 h 2.2 c 0,-1 0.7,-1.5 1.7,-1.5 1,0 1.8,0.5 1.7,1.4 -0.2,0.9 -1.8,0.9 -2.9,1.1 -1.2,0.2 -2.8,0.7 -3.2,2.4 -0.1,0.7 0,1.9 1,2.7 0.7,0.5 1.4,0.7 2.4,0.7 1.3,0 2.3,-0.5 2.9,-1.1 0,0.1 0.2,0.7 0.3,0.8 h 2.3 C 91.3,32.6 91.4,31.5 91.4,31 Z m -2.5,-0.4 c -0.2,0.6 -0.7,1 -1.8,1.1 -1.4,0.2 -2.3,-0.7 -1.7,-1.8 0.6,-1.1 2.8,-0.7 3.6,-1.5 0,0.4 0,1.8 -0.1,2.2 z"
   class="st1" />
	</g>
	<path
   style="fill:#ffffff"
   id="path408"
   d="m 55.1,33.9 c -3.9,-1.4 -4.7,-5 -3.7,-7.5 1,-2.5 4.4,-3.7 6.8,-2 2.4,1.7 2.1,5 2.1,5 h -6.1 v -1.7 h 3.5 c 0,0 0.1,-0.7 -0.5,-1.3 -0.8,-0.9 -1.9,-0.9 -2.6,-0.4 -0.9,0.5 -1.5,2.4 -1.1,4 0.5,1.6 2,2.3 3.4,2.3 2.1,0 3.6,-1.4 3.6,-3.8 0,-3.9 -2.6,-7.5 -6.6,-8.5 -4.7,-1.2 -9.4,1.6 -10.6,6.3 -1.2,4.7 1.6,9.4 6.3,10.6 3.3,0.8 6.7,-0.4 8.8,-2.8 -0.8,0.2 -2,0.3 -3.3,-0.2 z m -7.8,-4.5 c -0.6,0 -1,-0.4 -1,-1 0,-0.6 0.4,-1 1,-1 0.6,0 1,0.4 1,1 0,0.6 -0.4,1 -1,1 z"
   class="st1" />
</g>
<path
   style="fill:#ffffff"
   id="path412"
   d="m 132.8,6.5 c 0,0 -3.1,0 -3.1,0 l -6.3,9.9 -1.3,-4.8 0.1,-0.1 c 1.4,-0.5 2.7,-0.8 4,-1.1 l 0.3,-0.1 h -0.1 c 0,0 0,0 0,0 -0.2,0 -0.4,0 -0.6,0 l -2.9,0.2 2.4,-3.2 c 0,0 0.5,-0.8 1.2,-0.8 -0.4,0 -3.4,0 -3.4,0 L 121,9.6 v 0 l -0.3,-1.9 c 0,0 -0.3,-1.2 0.6,-1.2 -0.9,0 -3.6,0 -3.6,0 l 1,4.3 -4.6,0.3 0.9,-7.3 -5.2,7.5 -2.4,0.1 -0.2,0.5 2.3,-0.1 -2.3,3.4 c -0.5,-0.3 -1.1,-0.6 -1.7,-0.8 0.7,-1 1.1,-2.1 1.3,-2.7 0.3,-1.1 1,-2.9 1.3,-4.1 0.2,-1 0.7,-1 0.8,-1 h -3.2 c 0,0 -0.4,2 -1.4,5 -0.3,0.8 -0.5,1.5 -0.9,2 -1.8,-0.5 -3.9,-0.8 -6.5,-0.8 l -0.1,0.1 c 1.4,0.1 3.9,0.5 6.3,1.3 -2,3.1 -4.6,2.4 -4.6,2.4 l -0.1,0.3 c 3.4,0.8 5.5,-0.4 6.8,-1.9 0.4,0.2 0.8,0.4 1.1,0.6 0.2,0.1 0.3,0.2 0.5,0.3 l -1.1,1.6 h 0.1 v -0.1 0.1 h 0.1 l 1.2,-1.5 c 0.5,0.4 1,0.8 1.4,1.2 -3,2.3 -5.5,5.2 -7.5,8.4 h 0.1 c 2.1,-2.6 4.9,-5.2 8.3,-7.5 2.2,2.3 3.5,4.7 3.5,4.7 l 0.9,-7.4 c 0.2,-0.1 0.3,-0.2 0.5,-0.3 1.2,-0.6 2.3,-1.2 3.5,-1.7 l -2.6,3.3 h 2.7 l 2.4,-3 v 0 l 0.6,3 h 2.6 0.2 2.3 l 1.3,-2.1 h 2.9 l 0.1,2.1 h 2.4 l -0.3,-9.3 c -0.3,0 -0.2,-0.9 0.4,-0.9 z m -20.5,4.7 -1.8,0.1 2.1,-2.7 c 0,0 -0.2,1.1 -0.3,2.6 z m -5,4.1 2.7,-3.5 2.1,-0.1 c -0.1,1 -0.3,2 -0.4,3 -0.9,0.5 -1.8,1.1 -2.7,1.8 -0.4,-0.4 -1,-0.8 -1.7,-1.2 z m 3.9,3.6 c -0.3,-0.4 -0.6,-0.9 -1.2,-1.4 0.5,-0.3 1,-0.6 1.5,-0.9 -0.1,1.3 -0.2,2.3 -0.3,2.3 z m 2.5,-5.2 0.3,-2.1 5.9,-0.3 c -2.2,0.6 -4.2,1.4 -6.2,2.4 z m 14.4,-1 1.9,-3.2 v 3.2 z"
   class="st1" />
</svg>