<?xml version="1.0" encoding="utf-8"?>
<!-- Generator: Adobe Illustrator 22.1.0, SVG Export Plug-In . SVG Version: 6.00 Build 0)  -->
<svg version="1.1" id="Layer_1" xmlns="http://www.w3.org/2000/svg" xmlns:xlink="http://www.w3.org/1999/xlink" x="0px" y="0px"
	 viewBox="0 0 141.7 56.7" style="enable-background:new 0 0 141.7 56.7;" xml:space="preserve">
<style type="text/css">
	.st0{fill:#0058A2;stroke:#FFFFFF;stroke-width:8.905629e-02;}
	.st1{fill:#FFFFFF;}
	.st2{fill:#E73137;}
</style>
<g>
	<path class="st0" d="M28.2,28.1c0,6.2-5.1,11.2-11.2,11.2c-6.2,0-11.2-5.1-11.2-11.2c0-6.2,5-11.2,11.2-11.2
		C23,16.9,28.2,22,28.2,28.1z"/>
	<path class="st1" d="M19.5,34c4.8,2,4-3,1.4-6.8c-1.5-2.2-3.3-4-4.5-4.8c-4-2.9-6.4-1.1-3.6,4.6c0.9,1.8,2.1,3.1,3,4.3
		c0.7,0.9,2,1.3,1.6,1.8c-0.5,0.5-1.8-1.6-1.8-1.6c-1-1.2-1.9-2.4-2.8-4.1c-2.1-3.9-1.8-7.8,2-6.1c3.3,1.5,6.5,5.5,7.7,8.4
		C23,30.9,24.6,36.2,19.5,34"/>
	<path class="st2" d="M4.6,31.4c2.1-1.4,4.1-2.3,7.5-3.4c4.8-1.6,8.4-2.6,12.8-4.9c2-1,5.4-3.2,6.6-5.2c-0.4,0.8-1.5,2.2-2,2.9
		C23.5,28.3,10.8,27.9,4.6,31.4"/>
	<path class="st1" d="M7.6,26c1.9,0,1.7,0,1.8,0c0,0,1.5,2.6,1.5,2.6c0,0,0-0.9,0-2.1c0-0.1-0.4-0.5-0.4-0.5c0.6,0,1.3,0,1.3,0
		c-0.3,0.3-0.3,0.3-0.3,0.5c0,0.6,0,1.8,0,3.1c0,0.2,0.1,0.3,0.4,0.6h-1.8c-0.6-1-1.6-2.8-1.6-2.7c0,0,0,1.1,0,2
		c0,0.3,0.1,0.4,0.4,0.7c0,0,0.3,0-1.4,0C8,29.8,8,29.5,8,29.5c0-1.2,0-2.3,0-3C8,26.4,8,26.4,7.6,26"/>
	<g>
		<path class="st1" d="M13.7,27.9c0.2-0.6,0.3-1.1,0.4-1.4c0-0.1-0.1-0.3-0.3-0.5l0,0c1,0,2.1,0,2.1,0c0.3,0.7,0.9,2.6,1.4,3.8
			c0.1,0.3,0.3,0.4,0.3,0.4c-0.9,0-2.5,0-2.5,0c0.4-0.4,0.4-0.4,0.2-1h-1.4c-0.3,0.7,0.1,1,0.1,1c-0.3,0-1.4,0-1.4,0
			c0.6-0.4,0.5-0.5,0.5-0.5C13.3,29,13.5,28.4,13.7,27.9l0.6,0c-0.1,0.4-0.2,0.8-0.2,0.8h1.1l-0.6-1.6c0,0-0.1,0.4-0.2,0.8
			L13.7,27.9z"/>
	</g>
	<g>
		<path class="st1" d="M23.1,27.9c0.2-0.6,0.3-1.1,0.4-1.4c0-0.1-0.1-0.3-0.3-0.5l0,0c1,0,2.1,0,2.1,0c0.3,0.7,0.9,2.6,1.4,3.8
			c0.1,0.3,0.3,0.4,0.3,0.4c-0.9,0-2.5,0-2.5,0c0.4-0.4,0.4-0.4,0.2-1h-1.4c-0.3,0.7,0.1,1,0.1,1c-0.3,0-1.4,0-1.4,0
			c0.6-0.4,0.5-0.5,0.5-0.5C22.8,29.1,23,28.5,23.1,27.9h0.6c-0.1,0.4-0.2,0.8-0.2,0.8h1.1l-0.6-1.6c0,0-0.1,0.4-0.2,0.8H23.1z"/>
	</g>
	<path class="st1" d="M21.4,27c0-0.8,0-1.1,0-1.1c-0.3,0.3-0.2,0.2-1,0.1c-2.5-0.4-2.7,1.9-1.3,2.5c1.2,0.4,1.6,0.5,1.4,0.9
		c-0.1,0.1-1.1,0.6-2.2-0.4l0,1.4c0.1-0.1,0.5-0.4,0.5-0.4c0,0,1.2,0.5,2.2,0c1.6-0.8,0.8-2.2-0.9-2.7C18.6,27,19.9,25.9,21.4,27"/>
	<path class="st1" d="M17.1,17.9C17.1,18,17.1,18,17.1,17.9C17,18,17,18,17,17.9C17,17.9,17,17.8,17.1,17.9
		C17.1,17.8,17.1,17.9,17.1,17.9z"/>
	<path class="st1" d="M17.8,19.3c0,0.1-0.1,0.1-0.1,0.1c-0.1,0-0.1-0.1-0.1-0.1s0.1-0.1,0.1-0.1C17.7,19.2,17.8,19.2,17.8,19.3z"/>
	<path class="st1" d="M19.4,21.6c0,0.1-0.1,0.1-0.1,0.1c-0.1,0-0.1-0.1-0.1-0.1c0-0.1,0-0.1,0.1-0.1C19.4,21.4,19.4,21.5,19.4,21.6z
		"/>
	<path class="st1" d="M16.8,20.1C16.8,20.1,16.7,20.2,16.8,20.1c-0.1,0.1-0.2,0.1-0.2,0C16.6,20,16.6,20,16.8,20.1
		C16.7,20,16.8,20,16.8,20.1z"/>
	<path class="st1" d="M17.8,20.6C17.8,20.6,17.7,20.7,17.8,20.6c-0.1,0.1-0.2,0.1-0.2,0S17.6,20.5,17.8,20.6
		C17.7,20.5,17.8,20.5,17.8,20.6z"/>
	<path class="st1" d="M16.5,19.1c0,0.1-0.1,0.1-0.1,0.1c-0.1,0-0.1-0.1-0.1-0.1c0-0.1,0.1-0.1,0.1-0.1C16.4,19,16.5,19.1,16.5,19.1z
		"/>
	<path class="st1" d="M15,20C15,20.1,14.9,20.1,15,20c-0.1,0.1-0.2,0.1-0.2,0C14.8,20,14.8,20,15,20C14.9,20,15,20,15,20z"/>
	<path class="st1" d="M15.2,20.2C15.2,20.3,15.2,20.3,15.2,20.2c-0.1,0.1-0.2,0.1-0.2,0C15.1,20.2,15.1,20.1,15.2,20.2
		C15.2,20.1,15.2,20.2,15.2,20.2z"/>
	<path class="st1" d="M15.5,20.4C15.5,20.5,15.5,20.5,15.5,20.4c-0.1,0.1-0.2,0.1-0.2,0C15.3,20.4,15.4,20.3,15.5,20.4
		C15.5,20.3,15.5,20.4,15.5,20.4z"/>
	<path class="st1" d="M15.1,20.8C15.1,20.8,15.1,20.9,15.1,20.8c-0.1,0.1-0.2,0.1-0.2,0C14.9,20.7,15,20.7,15.1,20.8
		C15.1,20.7,15.1,20.7,15.1,20.8z"/>
	<path class="st1" d="M13,22.3C13,22.3,12.9,22.3,13,22.3c-0.1,0.1-0.2,0.1-0.2,0C12.8,22.2,12.8,22.2,13,22.3
		C12.9,22.2,13,22.2,13,22.3z"/>
	<path class="st1" d="M13.4,22.7C13.4,22.8,13.3,22.8,13.4,22.7c-0.1,0.1-0.2,0.1-0.2,0C13.2,22.7,13.2,22.6,13.4,22.7
		C13.3,22.6,13.4,22.7,13.4,22.7z"/>
	<path class="st1" d="M13.1,30.5C13.1,30.5,13,30.6,13.1,30.5c-0.1,0.1-0.2,0.1-0.2,0C12.9,30.4,12.9,30.4,13.1,30.5
		C13,30.4,13.1,30.4,13.1,30.5z"/>
	<path class="st1" d="M13.1,32.6c0,0.1-0.1,0.1-0.1,0.1c-0.1,0-0.1-0.1-0.1-0.1c0-0.1,0.1-0.1,0.1-0.1
		C13.1,32.5,13.1,32.5,13.1,32.6z"/>
	<path class="st1" d="M11.9,33.7C11.9,33.7,11.9,33.8,11.9,33.7c-0.1,0.1-0.2,0.1-0.2,0C11.7,33.6,11.8,33.6,11.9,33.7
		C11.9,33.6,11.9,33.6,11.9,33.7z"/>
	<path class="st1" d="M10.5,34.1c0,0.1-0.1,0.1-0.1,0.1c-0.1,0-0.1-0.1-0.1-0.1c0-0.1,0.1-0.1,0.1-0.1C10.4,34,10.5,34.1,10.5,34.1z
		"/>
	<path class="st1" d="M10.2,33.1c0,0.1-0.1,0.1-0.1,0.1c-0.1,0-0.1-0.1-0.1-0.1C9.9,33.1,10,33,10,33C10.1,33,10.2,33.1,10.2,33.1z"
		/>
	<path class="st1" d="M10,33.8C10,33.8,9.9,33.9,10,33.8c-0.1,0.1-0.2,0.1-0.2,0C9.8,33.7,9.8,33.7,10,33.8
		C9.9,33.7,10,33.7,10,33.8z"/>
	<path class="st1" d="M8.9,33.2C8.9,33.3,8.9,33.3,8.9,33.2c-0.1,0.1-0.2,0.1-0.2,0C8.7,33.2,8.8,33.2,8.9,33.2
		C8.9,33.2,8.9,33.2,8.9,33.2z"/>
	<path class="st1" d="M12.7,35C12.7,35.1,12.7,35.1,12.7,35c-0.1,0.1-0.2,0.1-0.2,0C12.5,35,12.6,34.9,12.7,35
		C12.7,34.9,12.7,35,12.7,35z"/>
	<path class="st1" d="M13.8,34.2c0,0.1,0,0.1-0.1,0.1c-0.1,0-0.1-0.1-0.1-0.1c0-0.1,0.1-0.1,0.1-0.1C13.8,34.1,13.8,34.1,13.8,34.2z
		"/>
	<path class="st1" d="M14,35.2C14,35.3,13.9,35.3,14,35.2c-0.1,0.1-0.2,0.1-0.2,0C13.8,35.2,13.8,35.2,14,35.2
		C13.9,35.2,14,35.2,14,35.2z"/>
	<path class="st1" d="M18.7,34.2C18.7,34.3,18.6,34.3,18.7,34.2c-0.1,0.1-0.2,0.1-0.2,0C18.5,34.2,18.5,34.1,18.7,34.2
		C18.6,34.1,18.7,34.2,18.7,34.2z"/>
	<path class="st1" d="M16.5,35C16.5,35,16.4,35.1,16.5,35c-0.1,0.1-0.2,0.1-0.2,0C16.3,34.9,16.3,34.9,16.5,35
		C16.4,34.9,16.5,34.9,16.5,35z"/>
	<path class="st1" d="M22.3,36.1C22.3,36.2,22.3,36.2,22.3,36.1c-0.1,0.1-0.2,0.1-0.2,0C22.2,36.1,22.2,36,22.3,36.1
		C22.3,36,22.3,36.1,22.3,36.1z"/>
	<path class="st1" d="M22.8,31.8c0,0.1-0.1,0.1-0.1,0.1c-0.1,0-0.1-0.1-0.1-0.1c0-0.1,0.1-0.1,0.1-0.1
		C22.8,31.7,22.8,31.7,22.8,31.8z"/>
	<path class="st1" d="M21.9,32.4C21.9,32.4,21.9,32.5,21.9,32.4c-0.1,0.1-0.2,0.1-0.2,0C21.7,32.3,21.8,32.3,21.9,32.4
		C21.9,32.3,21.9,32.3,21.9,32.4z"/>
	<path class="st1" d="M22.8,32.6c0,0.1-0.1,0.1-0.1,0.1c-0.1,0-0.1-0.1-0.1-0.1c0-0.1,0.1-0.1,0.1-0.1
		C22.8,32.5,22.8,32.5,22.8,32.6z"/>
	<path class="st1" d="M21.9,33.7C21.9,33.7,21.9,33.7,21.9,33.7c-0.1,0.1-0.2,0.1-0.2,0C21.7,33.6,21.8,33.6,21.9,33.7
		C21.9,33.6,21.9,33.6,21.9,33.7z"/>
	<path class="st1" d="M24.2,31.2C24.2,31.2,24.2,31.3,24.2,31.2c-0.1,0.1-0.2,0.1-0.2,0C24,31.1,24.1,31.1,24.2,31.2
		C24.2,31.1,24.2,31.1,24.2,31.2z"/>
	<path class="st1" d="M24.4,31.7c0,0.1,0,0.1-0.1,0.1c-0.1,0-0.1-0.1-0.1-0.1c0-0.1,0.1-0.1,0.1-0.1C24.4,31.6,24.4,31.7,24.4,31.7z
		"/>
	<path class="st1" d="M26,32.4c0,0.1-0.1,0.1-0.1,0.1c-0.1,0-0.1-0.1-0.1-0.1s0.1-0.1,0.1-0.1C26,32.3,26,32.3,26,32.4z"/>
	<path class="st1" d="M24.4,33.6C24.4,33.6,24.4,33.6,24.4,33.6c-0.1,0.1-0.2,0.1-0.2,0C24.2,33.5,24.3,33.5,24.4,33.6
		C24.4,33.5,24.4,33.5,24.4,33.6z"/>
	<path class="st1" d="M25.4,32.6C25.4,32.6,25.4,32.7,25.4,32.6c-0.1,0.1-0.2,0.1-0.2,0C25.3,32.5,25.3,32.5,25.4,32.6
		C25.4,32.5,25.4,32.5,25.4,32.6z"/>
	<path class="st1" d="M25.2,34.1C25.2,34.1,25.2,34.2,25.2,34.1c-0.1,0.1-0.2,0.1-0.2,0C25.1,34,25.1,34,25.2,34.1
		C25.2,34,25.2,34,25.2,34.1z"/>
	<g>
		<circle class="st1" cx="25.5" cy="31.6" r="0.1"/>
	</g>
	<g>
		<polygon class="st1" points="25.5,31.2 25.5,31.6 25.1,31.6 25.5,31.7 25.5,32.1 25.6,31.7 26,31.6 25.6,31.6 		"/>
	</g>
	<g>
		<circle class="st1" cx="24.5" cy="34.1" r="0.1"/>
	</g>
	<g>
		<polygon class="st1" points="24.5,33.6 24.5,34 24.1,34.1 24.5,34.1 24.6,34.5 24.6,34.1 25,34.1 24.6,34 		"/>
	</g>
	<g>
		<circle class="st1" cx="14" cy="22.4" r="0.1"/>
	</g>
	<g>
		<polygon class="st1" points="14,22 14,22.4 13.6,22.4 14,22.5 14,22.9 14.1,22.5 14.5,22.4 14.1,22.4 		"/>
	</g>
	<g>
		<path class="st1" d="M19.4,19c0,0.1-0.1,0.1-0.1,0.1s-0.1-0.1-0.1-0.1c0-0.1,0.1-0.1,0.1-0.1S19.4,19,19.4,19z"/>
	</g>
	<g>
		<polygon class="st1" points="19.3,18.6 19.2,19 18.9,19 19.2,19.1 19.3,19.5 19.3,19.1 19.7,19 19.3,19 		"/>
	</g>
	<g>
		<path class="st1" d="M13,36.3c0,0.1-0.1,0.1-0.1,0.1c-0.1,0-0.1-0.1-0.1-0.1c0-0.1,0.1-0.1,0.1-0.1C13,36.2,13,36.2,13,36.3z"/>
	</g>
	<g>
		<polygon class="st1" points="12.9,35.9 12.9,36.3 12.5,36.3 12.9,36.4 12.9,36.8 13,36.4 13.3,36.3 13,36.3 		"/>
	</g>
	<path class="st2" d="M31.6,18C29.9,23,23,27,17.2,30.7c-3.5,2.3-6.9,4.9-9.3,7.1c-0.6,0.6,0.1-0.2-0.1,0c3.3-3.8,7.1-6.1,9.3-7.5
		c3.6-2.4,5.6-3,11.8-8.7"/>
	<path class="st2" d="M6,30.6c-0.6,0.3-1.2,0.6-1.6,0.9l0.3,0.1c0.4-0.3,0.9-0.5,1.4-0.7"/>
	<path class="st2" d="M9.3,36.2c-0.6,0.5-1.1,1-1.7,1.6l0,0.4c0.5-0.5,1.2-1.1,1.9-1.8"/>
	<path class="st1" d="M19.5,34c4.8,2,4-3,1.4-6.8c-1.5-2.2-3.2-3.9-4.5-4.8c-1.5-1.1-1.7-1.2-1.7-1.2c3.4,1.6,6.5,5.5,7.7,8.4
		C23,30.9,24.6,36.2,19.5,34"/>
</g>
<g>
	<g>
		<path class="st1" d="M78.1,27.5c-0.7-0.1-1.7-0.2-2.1-0.7c-0.5-0.7,0.1-1.7,1.7-1.6c1.4,0.1,1.6,1.2,1.6,1.6h2.1
			c0-0.8-0.3-1.6-0.8-2.2c-0.6-0.7-2.1-1.4-4-1.1c-1,0.1-2.3,0.7-2.8,2c-0.4,1.2,0,2.3,0.7,2.9c0.9,0.7,2.7,0.9,3.4,1.1
			c0.9,0.2,1.5,0.3,1.4,1.2c-0.1,1-1.6,1.3-2.6,0.9c-0.7-0.2-1-0.8-1.2-1.6h-2.2c0,1,0.6,2,1.2,2.5c0.9,0.7,1.9,1,3,1
			c1.5,0,2.8-0.4,3.5-1.5c0.4-0.6,0.8-1.9,0.1-3.2C80.7,28,79.3,27.7,78.1,27.5z"/>
		<path class="st1" d="M70.9,24.9c-0.9-1-2.4-1.6-4-1.3c-2.9,0.5-3.7,3.3-3.8,4.2c-0.2,1.7,0.2,4.5,3.2,5.6c1.4,0.5,3.1,0.3,4.5-0.6
			c0.7-0.6,1.5-1.8,1.6-2.6h-2.5c-0.1,0.3-0.3,0.8-0.7,1.1c-1,0.7-2.1,0.2-2.6-0.1c-0.7-0.6-1-1.5-1-2.8c0-1.8,0.8-2.9,2.3-2.9
			c1.3,0,2.1,1.1,2,2h-3.5v1.7h6.1C72.5,27.7,71.7,25.9,70.9,24.9z"/>
		<path class="st1" d="M91.4,31c0-0.5,0-2.5,0-3s-0.1-1.5-0.2-2.3c-0.1-0.5-0.6-1.3-1.4-1.7c-0.8-0.4-1.3-0.4-2.6-0.4
			c-1.8,0-3.8,0.6-3.9,3.3h2.2c0-1,0.7-1.5,1.7-1.5c1,0,1.8,0.5,1.7,1.4c-0.2,0.9-1.8,0.9-2.9,1.1c-1.2,0.2-2.8,0.7-3.2,2.4
			c-0.1,0.7,0,1.9,1,2.7c0.7,0.5,1.4,0.7,2.4,0.7c1.3,0,2.3-0.5,2.9-1.1c0,0.1,0.2,0.7,0.3,0.8h2.3C91.3,32.6,91.4,31.5,91.4,31z
			 M88.9,30.6c-0.2,0.6-0.7,1-1.8,1.1c-1.4,0.2-2.3-0.7-1.7-1.8c0.6-1.1,2.8-0.7,3.6-1.5C89,28.8,89,30.2,88.9,30.6z"/>
	</g>
	<path class="st1" d="M55.1,33.9c-3.9-1.4-4.7-5-3.7-7.5c1-2.5,4.4-3.7,6.8-2c2.4,1.7,2.1,5,2.1,5h-6.1v-1.7h3.5
		c0,0,0.1-0.7-0.5-1.3c-0.8-0.9-1.9-0.9-2.6-0.4c-0.9,0.5-1.5,2.4-1.1,4c0.5,1.6,2,2.3,3.4,2.3c2.1,0,3.6-1.4,3.6-3.8
		c0-3.9-2.6-7.5-6.6-8.5c-4.7-1.2-9.4,1.6-10.6,6.3c-1.2,4.7,1.6,9.4,6.3,10.6c3.3,0.8,6.7-0.4,8.8-2.8
		C57.6,34.3,56.4,34.4,55.1,33.9z M47.3,29.4c-0.6,0-1-0.4-1-1s0.4-1,1-1c0.6,0,1,0.4,1,1S47.9,29.4,47.3,29.4z"/>
</g>
<path class="st1" d="M137.2,23.4c0,0-3.1,0-3.1,0l-6.3,9.9l-1.3-4.8l0.1-0.1c1.4-0.5,2.7-0.8,4-1.1l0.3-0.1l-0.1,0c0,0,0,0,0,0
	c-0.2,0-0.4,0-0.6,0l-2.9,0.2l2.4-3.2c0,0,0.5-0.8,1.2-0.8c-0.4,0-3.4,0-3.4,0l-2.1,3.1h0l-0.3-1.9c0,0-0.3-1.2,0.6-1.2
	c-0.9,0-3.6,0-3.6,0l1,4.3l-4.6,0.3l0.9-7.3l-5.2,7.5l-2.4,0.1l-0.2,0.5l2.3-0.1l-2.3,3.4c-0.5-0.3-1.1-0.6-1.7-0.8
	c0.7-1,1.1-2.1,1.3-2.7c0.3-1.1,1-2.9,1.3-4.1c0.2-1,0.7-1,0.8-1h-3.2c0,0-0.4,2-1.4,5c-0.3,0.8-0.5,1.5-0.9,2
	c-1.8-0.5-3.9-0.8-6.5-0.8l-0.1,0.1c1.4,0.1,3.9,0.5,6.3,1.3c-2,3.1-4.6,2.4-4.6,2.4l-0.1,0.3c3.4,0.8,5.5-0.4,6.8-1.9
	c0.4,0.2,0.8,0.4,1.1,0.6c0.2,0.1,0.3,0.2,0.5,0.3l-1.1,1.6h0.1l0-0.1l0,0.1h0.1l1.2-1.5c0.5,0.4,1,0.8,1.4,1.2
	c-3,2.3-5.5,5.2-7.5,8.4h0.1c2.1-2.6,4.9-5.2,8.3-7.5c2.2,2.3,3.5,4.7,3.5,4.7l0.9-7.4c0.2-0.1,0.3-0.2,0.5-0.3
	c1.2-0.6,2.3-1.2,3.5-1.7l-2.6,3.3h2.7l2.4-3h0l0.6,3h2.6h0.2h2.3l1.3-2.1h2.9l0.1,2.1h2.4l-0.3-9.3
	C136.5,24.3,136.6,23.4,137.2,23.4z M116.7,28.1l-1.8,0.1l2.1-2.7C117,25.5,116.8,26.6,116.7,28.1z M111.7,32.2l2.7-3.5l2.1-0.1
	c-0.1,1-0.3,2-0.4,3c-0.9,0.5-1.8,1.1-2.7,1.8C113,33,112.4,32.6,111.7,32.2z M115.6,35.8c-0.3-0.4-0.6-0.9-1.2-1.4
	c0.5-0.3,1-0.6,1.5-0.9C115.8,34.8,115.7,35.8,115.6,35.8z M118.1,30.6l0.3-2.1l5.9-0.3C122.1,28.8,120.1,29.6,118.1,30.6z
	 M132.5,29.6l1.9-3.2l0,3.2H132.5z"/>
</svg>
