<?xml version="1.0" encoding="UTF-8" standalone="no"?>
<!-- Generator: Adobe Illustrator 23.0.3, SVG Export Plug-In . SVG Version: 6.00 Build 0)  -->

<svg
   xmlns:dc="http://purl.org/dc/elements/1.1/"
   xmlns:cc="http://creativecommons.org/ns#"
   xmlns:rdf="http://www.w3.org/1999/02/22-rdf-syntax-ns#"
   xmlns:svg="http://www.w3.org/2000/svg"
   xmlns="http://www.w3.org/2000/svg"
   xmlns:sodipodi="http://sodipodi.sourceforge.net/DTD/sodipodi-0.dtd"
   xmlns:inkscape="http://www.inkscape.org/namespaces/inkscape"
   version="1.1"
   id="Layer_1"
   x="0px"
   y="0px"
   viewBox="0 0 259.21302 49.844433"
   xml:space="preserve"
   sodipodi:docname="Trilateral_Logo.svg"
   width="259.21301"
   height="49.844433"
   inkscape:version="0.92.3 (2405546, 2018-03-11)"><metadata
   id="metadata13"><rdf:RDF><cc:Work
       rdf:about=""><dc:format>image/svg+xml</dc:format><dc:type
         rdf:resource="http://purl.org/dc/dcmitype/StillImage" /><dc:title></dc:title></cc:Work></rdf:RDF></metadata><defs
   id="defs11" /><sodipodi:namedview
   pagecolor="#ffffff"
   bordercolor="#666666"
   borderopacity="1"
   objecttolerance="10"
   gridtolerance="10"
   guidetolerance="10"
   inkscape:pageopacity="0"
   inkscape:pageshadow="2"
   inkscape:window-width="1920"
   inkscape:window-height="1025"
   id="namedview9"
   showgrid="false"
   inkscape:zoom="2.9277303"
   inkscape:cx="199.88371"
   inkscape:cy="-6.4358327"
   inkscape:window-x="2880"
   inkscape:window-y="27"
   inkscape:window-maximized="1"
   inkscape:current-layer="Layer_1"
   fit-margin-top="0"
   fit-margin-left="0"
   fit-margin-right="0"
   fit-margin-bottom="0" />
<style
   type="text/css"
   id="style2">
	.st0{fill:#FFFFFF;}
</style>

<ellipse
   style="fill:#0b3d91;stroke-width:0.64502245"
   cx="30.557283"
   cy="24.922216"
   id="circle992"
   rx="26.897858"
   ry="24.922216" /><g
   transform="matrix(0.6701011,0,0,0.62088233,-2.9806097,-3.0174928)"
   style="fill:#ffffff"
   id="g1086"><circle
     cx="47.679001"
     cy="12.57"
     r="0.44999999"
     id="circle994" /><circle
     cx="52.299"
     cy="13.17"
     r="0.44999999"
     id="circle996" /><circle
     cx="58.359001"
     cy="21.33"
     r="0.44999999"
     id="circle998" /><circle
     cx="25.118999"
     cy="63.330002"
     r="0.44999999"
     id="circle1000" /><circle
     cx="26.289"
     cy="66.93"
     r="0.44999999"
     id="circle1002" /><circle
     cx="20.709"
     cy="63.869999"
     r="0.33700001"
     id="circle1004" /><circle
     cx="39.008999"
     cy="70.942001"
     r="0.338"
     id="circle1006" /><circle
     cx="67.710999"
     cy="64.980003"
     r="0.33700001"
     id="circle1008" /><circle
     cx="76.052002"
     cy="55.919998"
     r="0.338"
     id="circle1010" /><circle
     cx="35.168999"
     cy="23.962"
     r="0.33700001"
     id="circle1012" /><circle
     cx="44.348999"
     cy="17.219999"
     r="0.33700001"
     id="circle1014" /><circle
     cx="43.352001"
     cy="16.559999"
     r="0.33700001"
     id="circle1016" /><circle
     cx="42.452"
     cy="15.9"
     r="0.33700001"
     id="circle1018" /><circle
     cx="36.609001"
     cy="25.702999"
     r="0.33700001"
     id="circle1020" /><circle
     cx="50.131001"
     cy="8.1599998"
     r="0.33700001"
     id="circle1022" /><circle
     cx="52.352001"
     cy="17.879999"
     r="0.33700001"
     id="circle1024" /><circle
     cx="48.848999"
     cy="15.982"
     r="0.33700001"
     id="circle1026" /><circle
     cx="42.848999"
     cy="18.563"
     r="0.33700001"
     id="circle1028" /><circle
     cx="69.308998"
     cy="73.883003"
     r="0.33700001"
     id="circle1030" /><circle
     cx="24.549"
     cy="65.610001"
     r="0.338"
     id="circle1032" /><circle
     cx="48.008999"
     cy="69.959999"
     r="0.338"
     id="circle1034" /><circle
     cx="31.531"
     cy="65.339996"
     r="0.338"
     id="circle1036" /><circle
     cx="34.449001"
     cy="70.102997"
     r="0.338"
     id="circle1038" /><circle
     cx="55.929001"
     cy="67.102997"
     r="0.33700001"
     id="circle1040" /><circle
     cx="67.771004"
     cy="60.419998"
     r="0.33700001"
     id="circle1042" /><circle
     cx="76.749001"
     cy="64.522003"
     r="0.33700001"
     id="circle1044" /><circle
     cx="79.808998"
     cy="66.480003"
     r="0.33700001"
     id="circle1046" /><circle
     cx="80.311996"
     cy="61.139999"
     r="0.33700001"
     id="circle1048" /><circle
     cx="35.671001"
     cy="53.580002"
     r="0.33700001"
     id="circle1050" /><circle
     cx="35.799"
     cy="61.32"
     r="0.44999999"
     id="circle1052" /><circle
     cx="38.499001"
     cy="67.019997"
     r="0.44999999"
     id="circle1054" /><circle
     cx="70.838997"
     cy="61.080002"
     r="0.44999999"
     id="circle1056" /><circle
     cx="82.478996"
     cy="60.419998"
     r="0.44999999"
     id="circle1058" /><circle
     cx="76.719002"
     cy="57.959999"
     r="0.44999999"
     id="circle1060" /><circle
     cx="70.838997"
     cy="58.200001"
     r="0.44999999"
     id="circle1062" /><path
     inkscape:connector-curvature="0"
     d="m 58.71,12.288 1.119,-0.107 -1.117,-0.063 c -0.035,-0.216 -0.208,-0.385 -0.426,-0.413 l -0.107,-1.114 -0.064,1.123 c -0.202,0.045 -0.357,0.214 -0.382,0.424 l -1.144,0.104 1.152,0.062 c 0.042,0.193 0.198,0.344 0.394,0.38 l 0.104,1.148 0.061,-1.146 c 0.207,-0.035 0.371,-0.194 0.41,-0.398 z"
     id="path1064" /><path
     inkscape:connector-curvature="0"
     d="m 39.824,24.746 1.119,-0.107 -1.117,-0.063 C 39.792,24.36 39.618,24.191 39.4,24.163 l -0.107,-1.114 -0.063,1.123 c -0.203,0.045 -0.358,0.214 -0.383,0.424 l -1.144,0.104 1.152,0.062 c 0.042,0.193 0.198,0.344 0.394,0.38 l 0.104,1.148 0.062,-1.146 c 0.207,-0.034 0.371,-0.194 0.409,-0.398 z"
     id="path1066" /><path
     inkscape:connector-curvature="0"
     d="m 81.659,57.684 1.119,-0.107 -1.117,-0.063 c -0.034,-0.216 -0.208,-0.385 -0.426,-0.413 l -0.107,-1.114 -0.063,1.123 c -0.202,0.045 -0.357,0.214 -0.382,0.424 l -1.144,0.104 1.152,0.062 c 0.042,0.193 0.198,0.344 0.394,0.38 l 0.104,1.148 0.062,-1.146 c 0.205,-0.034 0.369,-0.193 0.408,-0.398 z"
     id="path1068" /><path
     inkscape:connector-curvature="0"
     d="m 36.044,74.906 1.119,-0.107 -1.117,-0.063 C 36.011,74.52 35.838,74.351 35.62,74.323 L 35.513,73.21 35.45,74.332 c -0.203,0.045 -0.358,0.214 -0.383,0.424 l -1.144,0.104 1.152,0.062 c 0.042,0.193 0.198,0.345 0.394,0.38 l 0.104,1.148 0.062,-1.146 c 0.206,-0.034 0.371,-0.194 0.409,-0.398 z"
     id="path1070" /><path
     inkscape:connector-curvature="0"
     d="m 78.104,66.506 1.119,-0.107 -1.117,-0.063 C 78.072,66.12 77.898,65.951 77.68,65.923 l -0.107,-1.114 -0.063,1.122 c -0.202,0.045 -0.357,0.214 -0.382,0.424 l -1.144,0.104 1.152,0.062 c 0.042,0.193 0.198,0.344 0.394,0.38 l 0.104,1.148 0.062,-1.146 c 0.205,-0.033 0.37,-0.193 0.408,-0.397 z"
     id="path1072" /><path
     style="fill:#fc3d21"
     inkscape:connector-curvature="0"
     d="m 59.568,35.385 c -4.667,1.814 -9.219,3.433 -13.06,4.635 -7.805,2.444 -29.16,9.06 -42.06,17.4 l 1.08,0.42 c 7.86,-4.44 12.969,-5.835 17.88,-7.38 5.34,-1.68 22.603,-5.72 30.42,-7.92 2.641,-0.743 5.734,-1.716 9.01,-2.9 -0.762,-1.063 -1.566,-2.129 -2.412,-3.193 -0.283,-0.359 -0.57,-0.713 -0.858,-1.062 z m 5.702,7.859 C 64.14,44.007 63.193,44.616 62.53,45 58.69,47.22 39.969,60 35.71,62.94 31.451,65.88 19.63,77.04 16.15,80.28 l -0.12,1.319 C 27.25,71.519 30.77,69.033 35.23,65.64 40.75,61.44 52.169,53.67 56.05,51.18 59.76,48.8 63.106,46.611 66.109,44.608 66.06,44.526 66.011,44.444 65.962,44.361 65.736,43.99 65.505,43.618 65.27,43.244 Z M 82.809,24.72 c -5.466,3.204 -14.081,7.071 -22.439,10.352 0.2,0.245 0.399,0.492 0.597,0.741 0.934,1.176 1.815,2.36 2.644,3.545 6.57,-2.42 13.779,-5.668 19.499,-9.599 -2.725,2.582 -11.734,9.315 -17.227,13.068 0.283,0.461 0.557,0.922 0.822,1.381 8.322,-5.569 13.922,-9.668 17.185,-12.409 4.5,-3.78 14.76,-12.24 18.66,-23.58 -6.841,8.701 -14.929,13.68 -19.741,16.501 z"
     id="path1074" /><path
     inkscape:connector-curvature="0"
     d="m 44.884,54.939 c -0.885,-1.114 -2.109,-2.606 -3.028,-3.763 -1.229,-1.547 -2.366,-3.11 -3.408,-4.671 -0.34,0.085 -0.679,0.17 -1.018,0.255 1.258,1.963 2.655,3.923 4.177,5.839 1.112,1.4 2.123,2.527 2.641,3.228 0.105,0.142 0.313,0.456 0.594,0.874 0.324,-0.22 0.651,-0.442 0.981,-0.666 -0.319,-0.347 -0.634,-0.712 -0.939,-1.096 z m 6.46,5.864 c -0.727,-0.688 -2.49,-1.837 -4.325,-3.561 -0.405,0.278 -0.814,0.56 -1.224,0.844 1.185,1.67 2.799,3.721 4.063,4.319 1.904,0.902 2.417,-0.72 1.486,-1.602 z m 9.623,-24.99 C 50.475,22.607 37.658,15.352 32.132,19.743 c -4.292,3.41 -2.53,13.376 3.386,23.845 0.306,-0.105 0.609,-0.208 0.909,-0.31 -5.971,-10.2 -7.605,-19.679 -3.557,-22.896 5.087,-4.042 17.37,3.241 27.558,16.064 2.109,2.654 3.963,5.318 5.533,7.915 6.012,9.95 7.857,18.948 3.703,22.621 -1.271,1.124 -5.155,1.565 -10.243,-0.725 -0.071,0.089 0.043,0.33 0.132,0.389 4.392,1.766 8.599,2.439 10.723,0.752 5.104,-4.056 1.183,-18.379 -9.309,-31.585 z"
     id="path1076" /><path
     inkscape:connector-curvature="0"
     d="m 15.969,37.38 h 6.72 l 5.64,9.57 c 0,0 0,-6.93 0,-7.47 0,-0.84 -1.065,-1.935 -1.44,-2.1 0.45,0 4.38,0 4.65,0 -0.285,0.075 -1.2,1.185 -1.2,2.1 0,0.45 0,10.5 0,10.98 0,0.675 0.975,1.605 1.44,1.965 h -6.48 l -5.73,-9.615 c 0,0 0,7.17 0,7.56 0,0.75 0.735,1.47 1.5,2.085 h -4.95 c 0.705,-0.3 1.38,-1.245 1.44,-1.995 0.06,-0.75 0,-10.425 0,-10.845 0,-0.915 -0.885,-1.665 -1.59,-2.235 z"
     id="path1078" /><path
     inkscape:connector-curvature="0"
     d="m 77.439,52.425 h 8.94 c -0.495,-0.12 -1.05,-0.705 -1.35,-1.485 -0.3,-0.78 -5.04,-13.56 -5.04,-13.56 H 76.59 c -0.964,0.694 -1.997,1.426 -3.1,2.197 -0.003,0.028 -0.006,0.056 -0.011,0.083 -0.148,0.9 -2.808,10.534 -2.97,11.01 -0.225,0.66 -1.38,1.395 -1.845,1.785 h 4.815 c -0.48,-0.54 -0.87,-1.065 -0.78,-1.665 0.09,-0.6 0.36,-1.8 0.36,-1.8 h 4.98 c 0.225,0.6 0.393,1.139 0.48,1.65 0.105,0.615 -0.525,1.305 -1.08,1.785 z m -3.93,-5.355 1.68,-5.49 2.22,5.49 z m -0.757,-9.142 c 0.247,-0.182 0.495,-0.365 0.742,-0.548 h -1.305 c 0.13,0.12 0.345,0.309 0.563,0.548 z"
     id="path1080" /><path
     inkscape:connector-curvature="0"
     d="m 38.559,50.79 c 0.09,-0.6 0.36,-1.8 0.36,-1.8 h 4.98 c 0.225,0.6 0.393,1.139 0.48,1.65 0.105,0.615 -0.525,1.305 -1.08,1.785 h 7.871 c 0.164,-0.11 0.327,-0.22 0.49,-0.329 -0.305,-0.27 -0.586,-0.675 -0.771,-1.156 -0.3,-0.78 -5.04,-13.56 -5.04,-13.56 h -7.8 c 0.375,0.345 1.455,1.275 1.29,2.28 -0.147,0.9 -2.808,10.534 -2.97,11.01 -0.225,0.66 -1.38,1.395 -1.845,1.785 h 4.815 c -0.48,-0.54 -0.87,-1.065 -0.78,-1.665 z m 2.49,-9.21 2.22,5.49 h -3.9 z"
     id="path1082" /><path
     inkscape:connector-curvature="0"
     d="m 65.748,44.848 c -1.468,0.978 -3.017,1.999 -4.649,3.065 0.732,0.355 1.315,0.801 1.371,1.377 0.104,1.082 -2.07,1.605 -4.035,1.38 -0.393,-0.045 -0.779,-0.148 -1.147,-0.286 -0.408,0.263 -0.82,0.528 -1.238,0.796 -0.425,0.273 -0.941,0.609 -1.53,0.997 v 1.553 c 0.39,-0.765 1.243,-1.45 1.905,-1.485 0.285,-0.015 1.275,0.9 5.355,0.675 1.98,-0.109 5.805,-2.22 5.745,-4.65 -0.036,-1.436 -0.786,-2.556 -1.777,-3.422 z M 54.519,48.6 v 1.582 c 0.361,-0.241 0.717,-0.478 1.066,-0.709 -0.549,-0.382 -0.938,-0.739 -1.066,-0.873 z m 9.834,-4.745 c -0.38,-0.225 -0.765,-0.422 -1.134,-0.596 -1.92,-0.9 -3.93,-1.065 -4.35,-2.28 -0.296,-0.857 0.54,-1.65 2.58,-1.62 2.04,0.03 3.93,1.245 4.44,1.68 v -3.87 c -0.15,0.15 -0.808,0.905 -1.41,0.78 -1.155,-0.24 -3.12,-0.553 -5.37,-0.54 -2.58,0.015 -4.8,2.009 -4.875,4.53 -0.105,3.525 2.715,4.485 4.305,5.04 0.164,0.057 0.351,0.118 0.554,0.183 1.525,-0.992 2.731,-1.756 3.437,-2.163 0.474,-0.273 1.095,-0.665 1.823,-1.144 z"
     id="path1084" /></g><g
   transform="matrix(0.1589405,0,0,0.1589405,191.03738,1.8724008)"
   id="XMLID_2_"><g
     id="g980"><path
       style="fill:#0060b0"
       inkscape:connector-curvature="0"
       d="m 393.438,52.834 c 11.83,0 23.67,0 35.5,0 -6.4,1.65 -7.43,7.93 -7,16 1.65,31.04 2.14,72.24 3.5,103 -9.5,0 -19,0 -28.5,0 -0.12,-7.75 -0.14,-16.86 -0.5,-25 -11.17,0 -22.33,0 -33.5,0 -5.7,7.97 -10.27,17.06 -16,25 -20.17,0 -40.33,0 -60.5,0 -2.52,-11.47 -4.39,-23.61 -7,-35 -9.1,9.93 -18.71,23.85 -28.5,35 -10.17,0 -21.52,0 -31.69,0 0,0 2.641,-3.18 3.69,-4.5 8.32,-10.46 17.85,-22.61 26,-33.5 -15.5,6.67 -29.83,14.51 -44.5,22 -3.56,28.94 -7.24,57.77 -10.5,87 -12.37,-19.46 -25.22,-38.44 -41,-54.5 -34.46,23.59 -66.67,49.89 -93,82 -1.61,1.96 -3.15,5 -6,5.5 23.81,-38.18 52.98,-71.01 88,-98 -5.08,-4.88 -10.5,-9.08 -16.25,-13.46 -3.09,2.49 -14.13,17.46 -14.5,17.58 0,0 -0.13,-0.12 -1.25,-0.12 3.87,-6.79 8.74,-12.96 13.33,-19.04 -5.37,-4.17 -12.61,-7.67 -18.83,-11.46 -13.96,18.86 -46.74,32.21 -79.5,22 l 0.88,-3.19 c 0,0 5.25,0.681 7.62,0.69 21.79,0.09 36.93,-14.73 46,-29 -21.61,-7.39 -45.69,-12.3 -72.5,-14.5 l 0.92,-1.67 c 23.16,-0.25 55.05,4.82 75.08,9.67 0,0 3.64,-5.9 5,-9 9.43,-21.44 15.96,-48.46 22.5,-73 11.83,0 23.67,0 35.5,0 1.7,0.19 -1.02,1.55 -1.5,2 -5.21,4.92 -6.72,16.22 -9.5,25.5 -6.64,22.2 -13.93,46.86 -25.5,63.5 6.18,3.32 13.16,5.84 19,9.5 9.4,-12.6 18.25,-25.75 27,-39 -1,0.12 -20.88,1 -25.5,1.5 0.54,-1.87 1.24,-4.07 1.5,-6 9.22,-0.6 18.41,-1.25 28,-1.5 20.81,-28.85 40.68,-58.65 61,-88 -2.47,27.2 -6.59,56.91 -9.83,85 17.66,-1 35.19,-1.97 52.83,-3 -1.75,-9.12 -9.5,-40.88 -11.5,-50 13.83,0 27.67,0 41.5,0 -12.77,3.03 -2.58,24.6 -2.5,36 5.03,-5.28 8.44,-11.93 12.5,-18 4.09,-6.1 8.8,-11.75 12.5,-18 13,0 26,0 39,0 -7.79,2.55 -12.01,8.43 -17,15 -7.75,10.22 -15.84,21.57 -23.5,32 13.83,-0.34 26.72,-1.61 40.5,-2 -17.38,4.29 -33.88,8.5 -50.5,14.5 4.63,18.87 9.75,37.26 14.5,56 25.139,-38.19 49.37,-77.29 74.5,-115.5 z m -18.5,72.5 c 7.33,0 14.67,0 22,0 -0.12,-3 -0.19,-25.44 -0.5,-36 -7.201,11.97 -14.51,23.83 -21.5,36 z m -167.5,11 c 20.96,-10.86 44.44,-19.23 69,-26.5 -22.23,1.11 -44.49,1.59 -66.58,2.83 -0.84,7.92 -1.751,15.92 -2.42,23.67 z m -18,-29.5 c 1.17,-10.08 1.92,-20.08 3,-29 -7.72,10.29 -15.84,20.17 -23.5,30.5 7.5,-0.5 14.25,-1.08 20.5,-1.5 z m -5.5,42 c 1.5,-12.17 2.77,-23.55 4.5,-35 -8.48,0.02 -16.74,0.26 -24.5,1 -10.92,13.42 -21.44,27.23 -32,41 7.5,3.75 14.04,8.83 20.5,13.5 10.31,-7.02 20.549,-14.11 31.5,-20.5 z m -6.5,47.5 c 0.94,-8.55 2.75,-24.17 3,-26.5 -5.5,4 -11.54,6.8 -16.5,11 5.299,4.37 8.95,10.39 13.5,15.5 z"
       id="path978" /></g><g
     id="g982" /></g><g
   transform="matrix(0.10576203,0,0,0.10576203,82.981339,8.8850406)"
   id="g3"><g
     id="g5"><path
       inkscape:connector-curvature="0"
       d="m 19.093,215.859 c 16.627,28.637 41.878,50.808 72.67,62.817 -19.707,-12.01 -38.182,-26.174 -54.811,-43.417 -6.467,-5.851 -12.01,-12.317 -17.859,-19.4 z"
       style="fill:#4b7ab7"
       id="path7" /><path
       inkscape:connector-curvature="0"
       d="m 3.696,176.136 c 1.539,6.158 3.387,12.01 5.235,17.552 9.545,13.549 19.707,25.868 31.715,37.875 22.787,22.171 47.73,40.339 74.52,54.197 6.158,1.23 12.625,2.155 18.475,2.771 C 101.308,274.057 71.133,253.734 44.958,227.56 28.639,211.855 15.397,194.304 3.696,176.136 Z"
       style="fill:#4b7ab7"
       id="path9" /><path
       inkscape:connector-curvature="0"
       d="m 0,147.499 c 0,4.619 0.616,9.236 0.925,13.549 12.624,22.478 28.637,43.727 47.728,62.817 29.562,29.562 63.743,51.117 100.386,64.973 4.619,0 9.239,-0.307 13.856,-0.923 C 122.558,274.673 84.683,251.886 52.35,219.555 30.485,198 13.549,173.365 0,147.499 Z"
       style="fill:#4b7ab7"
       id="path11" /><path
       inkscape:connector-curvature="0"
       d="m 1.541,124.712 c -0.616,3.696 -0.925,7.391 -0.925,11.086 12.933,28.944 31.717,56.041 55.736,80.061 34.488,34.181 75.134,57.275 118.552,69.901 3.696,-0.616 7.391,-1.541 11.087,-2.773 C 140.109,271.903 96.383,247.883 60.047,211.856 34.181,185.99 14.781,155.813 1.541,124.712 Z"
       style="fill:#4b7ab7"
       id="path13" /><path
       inkscape:connector-curvature="0"
       d="m 5.542,104.389 c -0.923,3.08 -1.846,6.467 -2.155,9.545 12.933,34.181 33.258,66.514 60.971,94.228 37.566,37.259 83.141,61.276 131.793,71.438 2.771,-0.923 5.85,-2.155 9.237,-3.694 C 154.889,266.667 106.853,242.65 68.052,204.466 38.8,174.904 18.168,141.341 5.542,104.389 Z"
       style="fill:#4b7ab7"
       id="path15" /><path
       inkscape:connector-curvature="0"
       d="m 12.01,87.144 c -1.232,2.773 -2.155,5.544 -3.694,8.316 12.008,38.798 32.947,74.211 63.434,104.696 40.337,40.337 90.222,63.74 141.955,71.747 2.771,-1.539 4.926,-3.387 7.697,-4.619 C 168.439,260.819 116.706,237.106 75.751,196.46 44.343,164.742 23.096,127.483 12.01,87.144 Z"
       style="fill:#4b7ab7"
       id="path17" /><path
       inkscape:connector-curvature="0"
       d="m 61.895,163.819 c -8.313,-1.848 -14.781,-9.238 -14.781,-18.475 0,-0.925 0,-1.848 0,-2.771 C 34.181,120.402 24.942,96.382 19.4,72.056 c -1.232,2.155 -2.771,4.619 -3.694,7.39 10.161,41.571 31.407,80.676 63.74,113.009 41.878,41.571 94.841,64.975 149.038,70.208 2.155,-1.846 4.617,-3.387 6.774,-5.233 C 179.831,253.734 125.943,230.639 83.756,188.761 75.75,180.755 68.362,172.441 61.895,163.819 Z"
       style="fill:#4b7ab7"
       id="path19" /><path
       inkscape:connector-curvature="0"
       d="M 53.581,131.486 C 41.262,108.392 32.333,84.065 28.33,58.507 c -1.539,2.464 -2.771,4.31 -4.619,6.467 4.619,24.942 13.242,48.959 26.175,71.131 0.924,-1.848 2.463,-3.08 3.695,-4.619 z"
       style="fill:#4b7ab7"
       id="path21" /><path
       inkscape:connector-curvature="0"
       d="m 74.52,161.971 c -1.541,0.925 -3.696,1.848 -5.544,1.848 5.544,7.391 12.01,14.165 18.477,21.246 43.11,42.495 97.921,64.975 153.964,67.437 1.846,-1.846 3.694,-3.694 5.849,-5.542 -56.657,-0.923 -112.7,-23.094 -155.503,-66.205 -6.158,-5.851 -11.7,-12.317 -17.243,-18.784 z"
       style="fill:#4b7ab7"
       id="path23" /><path
       inkscape:connector-curvature="0"
       d="m 225.097,239.878 c 8.93,0.923 18.166,1.539 27.404,1.539 1.232,-1.539 2.771,-3.387 4.003,-4.62 -8.313,2.155 -17.552,3.081 -26.791,3.081 -1.228,0 -3.077,0 -4.616,0 z"
       style="fill:#4b7ab7"
       id="path25" /><path
       inkscape:connector-curvature="0"
       d="m 99.463,173.058 c -5.852,-6.158 -12.01,-12.626 -17.245,-19.093 -0.923,1.848 -1.848,3.387 -3.08,4.619 4.928,6.468 10.164,12.626 16.322,18.477 29.869,29.56 65.896,48.96 104.387,58.198 -11.701,-3.696 -21.862,-8.622 -31.101,-15.704 -25.25,-10.471 -48.96,-26.174 -69.283,-46.497 z"
       style="fill:#4b7ab7"
       id="path27" /><path
       inkscape:connector-curvature="0"
       d="M 64.359,127.483 C 49.885,102.541 41.263,74.827 37.875,47.114 c -1.846,1.848 -3.078,3.696 -4.926,5.542 3.696,26.791 12.317,52.04 25.25,76.059 1.847,-0.923 3.696,-1.232 6.16,-1.232 z"
       style="fill:#4b7ab7"
       id="path29" /><path
       inkscape:connector-curvature="0"
       d="m 152.118,203.542 c -1.848,-2.464 -3.696,-4.619 -5.544,-7.39 -13.856,-8.313 -27.097,-19.091 -39.107,-31.101 C 71.133,129.638 51.424,84.065 48.037,36.952 c -1.846,1.848 -3.694,3.08 -5.542,4.926 3.387,30.178 12.626,59.123 28.33,85.914 7.699,2.462 13.858,9.236 13.858,17.552 0,0.923 0,1.846 0,2.771 5.542,7.39 11.701,14.165 18.475,21.246 15.704,15.704 33.256,28.639 52.349,38.184 0,-0.309 0,-0.309 0,-0.309 -0.926,-0.923 -1.85,-2.462 -3.389,-3.694 z"
       style="fill:#4b7ab7"
       id="path31" /><path
       inkscape:connector-curvature="0"
       d="M 114.857,157.352 C 79.137,121.941 60.046,75.753 58.814,28.639 c -1.846,1.232 -3.694,2.771 -5.542,4.003 2.155,47.112 21.555,93.302 57.891,128.713 9.239,9.238 19.4,17.552 29.869,24.635 -1.232,-2.771 -2.771,-6.158 -4.003,-9.854 -7.391,-5.543 -14.781,-12.01 -22.172,-18.784 z"
       style="fill:#4b7ab7"
       id="path33" /><path
       inkscape:connector-curvature="0"
       d="m 191.532,192.765 c 10.469,8.313 24.327,13.855 39.107,13.855 8.006,0 15.396,-1.23 21.862,-3.694 -20.938,0 -41.261,-3.08 -60.969,-10.161 z"
       style="fill:#4b7ab7"
       id="path35" /><path
       inkscape:connector-curvature="0"
       d="M 122.557,149.347 C 86.837,114.55 69.285,67.746 69.285,21.248 c -1.848,0.923 -3.696,2.155 -5.542,3.078 0.923,47.114 19.091,93.918 55.118,129.331 5.235,4.926 10.162,9.546 15.706,14.165 -0.925,-3.08 -1.232,-5.852 -1.848,-8.623 -3.081,-3.386 -6.775,-6.157 -10.162,-9.852 z"
       style="fill:#4b7ab7"
       id="path37" /><path
       inkscape:connector-curvature="0"
       d="m 131.793,143.496 c -0.307,-0.309 -0.923,-0.923 -1.23,-0.923 C 95.459,107.469 78.523,60.971 80.369,14.781 c -1.846,0.925 -3.694,2.155 -5.542,3.08 -0.923,46.188 16.32,93.302 52.04,127.79 1.232,1.848 3.08,3.696 4.926,5.542 0,-2.771 0,-5.542 0,-7.697 z"
       style="fill:#4b7ab7"
       id="path39" /><path
       inkscape:connector-curvature="0"
       d="m 177.061,174.904 c 1.539,3.08 2.771,5.851 4.617,8.315 26.483,11.394 55.12,15.704 82.833,13.855 3.08,-1.848 5.852,-4.31 8.623,-6.465 -32.332,4.004 -65.897,-0.924 -96.073,-15.705 z"
       style="fill:#4b7ab7"
       id="path41" /><path
       inkscape:connector-curvature="0"
       d="m 173.365,160.432 c 0.616,2.771 0.923,5.235 1.539,7.391 32.333,16.629 69.285,22.171 104.389,16.32 0.307,-0.616 0.307,-0.616 0.923,-0.923 1.232,-1.848 2.771,-3.696 3.696,-6.159 -36.952,8.004 -76.675,2.462 -110.547,-16.629 z"
       style="fill:#4b7ab7"
       id="path43" /><path
       inkscape:connector-curvature="0"
       d="M 133.334,129.331 C 102.85,95.459 88.685,52.04 92.072,9.545 c -1.848,0.925 -4.312,1.848 -6.158,2.773 -2.157,44.34 13.24,89.606 46.495,124.403 0,-0.923 0,-1.848 0.309,-2.771 0,-1.541 0.616,-3.387 0.616,-4.619 z"
       style="fill:#4b7ab7"
       id="path45" /><path
       inkscape:connector-curvature="0"
       d="m 103.773,5.852 c -2.464,0.616 -4.31,0.923 -6.158,1.848 -3.696,40.646 8.929,82.218 36.952,115.165 0.923,-1.846 1.539,-4.31 2.462,-6.465 C 110.547,84.989 99.463,44.649 103.773,5.852 Z"
       style="fill:#4b7ab7"
       id="path47" /><path
       inkscape:connector-curvature="0"
       d="m 185.374,154.581 c -4.003,-2.462 -8.623,-4.619 -12.933,-7.391 0,2.157 0,4.62 0,6.774 35.104,20.325 75.75,26.483 114.241,17.245 0.923,-1.848 1.232,-3.696 1.848,-5.542 0,-0.616 0,-0.616 0,-0.616 -30.178,8.006 -62.511,6.158 -91.456,-5.542 h -11.701 v -4.928 z"
       style="fill:#4b7ab7"
       id="path49" /><path
       inkscape:connector-curvature="0"
       d="m 172.442,141.341 c 4.31,2.771 8.929,4.926 12.933,7.082 v -5.85 c -4.003,-2.157 -8.313,-4.928 -12.317,-7.699 -0.616,2.154 -0.616,4.619 -0.616,6.467 z"
       style="fill:#4b7ab7"
       id="path51" /><path
       inkscape:connector-curvature="0"
       d="m 214.011,159.509 c 24.635,6.465 50.808,6.465 75.443,-0.309 0,-1.848 0,-3.694 0.307,-6.158 -0.614,0.616 -1.846,0.616 -2.771,0.923 0,1.848 -0.307,3.696 -0.307,5.544 z"
       style="fill:#4b7ab7"
       id="path53" /><path
       inkscape:connector-curvature="0"
       d="m 114.857,3.08 c -1.846,0 -3.694,0.616 -5.542,0.923 -4.619,37.568 4.926,75.75 29.562,106.853 0.923,-1.848 1.848,-4.312 2.771,-6.16 C 118.861,75.136 110.24,38.184 114.857,3.08 Z"
       style="fill:#4b7ab7"
       id="path55" /><path
       inkscape:connector-curvature="0"
       d="M 148.115,94.534 C 128.099,66.821 121.324,33.258 126.251,0.925 c -1.846,0.307 -3.694,0.307 -5.849,0.923 -5.235,33.565 3.078,69.285 24.017,97.921 v 0 c 1.232,-1.539 2.155,-3.387 3.696,-5.235 z"
       style="fill:#4b7ab7"
       id="path57" /><path
       inkscape:connector-curvature="0"
       d="m 289.761,144.419 c 0,-0.307 0,-1.232 0,-2.155 -1.23,0.309 -2.155,0.923 -3.694,1.232 0,1.232 0.616,3.078 0.616,4.926 0.923,-0.307 2.464,-0.307 3.078,-0.923 0,-1.232 0,-2.155 0,-3.08 z"
       style="fill:#4b7ab7"
       id="path59" /><path
       inkscape:connector-curvature="0"
       d="m 173.981,128.715 c 3.694,2.771 7.697,5.542 11.394,8.007 v -6.158 h 1.539 c -4.31,-2.155 -8.006,-4.62 -11.701,-7.391 -0.309,1.846 -0.925,3.694 -1.232,5.542 z"
       style="fill:#4b7ab7"
       id="path61" /><path
       inkscape:connector-curvature="0"
       d="m 289.761,136.722 c 0,-1.848 -0.307,-3.696 -0.307,-5.542 -1.848,0.307 -3.387,0.923 -5.235,1.23 0.616,1.848 0.925,3.696 0.925,5.544 1.539,-0.309 3.387,-0.926 4.617,-1.232 z"
       style="fill:#4b7ab7"
       id="path63" /><path
       inkscape:connector-curvature="0"
       d="m 137.954,0 c -1.848,0 -4.312,0.309 -6.16,0.309 -5.542,31.101 0.925,63.434 19.4,90.222 1.539,-1.846 2.464,-3.387 3.696,-4.617 C 137.954,60.355 132.409,28.946 137.954,0 Z"
       style="fill:#4b7ab7"
       id="path65" /><path
       inkscape:connector-curvature="0"
       d="m 212.779,130.563 c -11.701,-4.003 -22.785,-10.162 -32.947,-17.861 -0.925,1.232 -1.848,3.08 -2.771,4.928 6.465,5.233 13.549,9.237 20.937,12.933 z"
       style="fill:#4b7ab7"
       id="path67" /><path
       inkscape:connector-curvature="0"
       d="m 149.038,0 c -1.539,0 -2.771,0 -3.694,0 -0.925,0 -1.541,0 -1.848,0 -6.158,27.713 -0.616,57.275 15.704,82.218 1.232,-1.539 2.771,-2.771 4.003,-3.694 C 148.115,54.813 143.496,26.174 149.038,0 Z"
       style="fill:#4b7ab7"
       id="path69" /><path
       inkscape:connector-curvature="0"
       d="m 288.531,125.635 c 0,-1.846 -0.616,-4.31 -0.616,-6.158 -2.157,0.925 -4.003,1.541 -6.467,2.464 0.923,1.848 1.539,3.694 1.848,5.542 1.848,-0.923 3.694,-1.539 5.235,-1.848 z"
       style="fill:#4b7ab7"
       id="path71" /><path
       inkscape:connector-curvature="0"
       d="m 244.189,130.563 c 0,-1.232 0,-3.081 0,-4.62 -20.323,-1.232 -40.339,-8.623 -57.275,-21.555 -0.616,0.307 -0.923,0.923 -1.539,1.232 -0.925,0.923 -1.848,1.848 -2.771,2.462 15.704,12.319 33.256,19.709 51.73,22.48 h 9.855 z"
       style="fill:#4b7ab7"
       id="path73" /><path
       inkscape:connector-curvature="0"
       d="m 160.123,0.309 c -1.846,0 -3.694,0 -5.542,-0.309 -5.542,25.251 -1.539,52.656 13.242,75.136 1.539,-0.925 2.771,-1.848 4.619,-2.771 C 158.584,50.81 154.581,24.942 160.123,0.309 Z"
       style="fill:#4b7ab7"
       id="path75" /><path
       inkscape:connector-curvature="0"
       d="m 286.683,114.55 c 0,-1.848 -0.616,-3.694 -0.925,-5.542 -2.771,0.923 -5.233,1.848 -8.004,2.155 0.923,1.848 1.539,3.694 2.462,5.542 2.154,-0.923 4.003,-1.232 6.467,-2.155 z"
       style="fill:#4b7ab7"
       id="path77" /><path
       inkscape:connector-curvature="0"
       d="m 240.492,114.55 c -15.395,-1.539 -29.56,-7.082 -42.495,-16.32 -2.462,0.923 -4.31,1.848 -6.158,2.771 15.397,11.701 32.949,18.168 50.81,19.4 -0.308,-1.847 -1.232,-4.003 -2.157,-5.851 z"
       style="fill:#4b7ab7"
       id="path79" /><path
       inkscape:connector-curvature="0"
       d="m 283.912,103.466 c -0.616,-1.541 -0.925,-3.387 -1.542,-5.235 -3.078,0.923 -6.465,2.464 -9.545,3.387 0.925,1.232 1.848,3.078 2.771,4.926 2.771,-0.923 5.544,-1.848 8.316,-3.078 z"
       style="fill:#4b7ab7"
       id="path81" /><path
       inkscape:connector-curvature="0"
       d="m 226.636,100.695 c -2.464,-0.925 -5.235,-1.848 -7.39,-2.773 -4.62,-1.539 -9.855,-1.539 -14.472,-0.923 9.853,5.851 20.939,9.545 31.408,11.394 -2.771,-3.081 -5.851,-5.852 -9.546,-7.698 z"
       style="fill:#4b7ab7"
       id="path83" /><path
       inkscape:connector-curvature="0"
       d="m 171.209,2.157 c -1.848,-0.309 -3.696,-0.925 -5.542,-0.925 -5.544,23.094 -1.848,48.037 12.007,68.976 1.232,-0.923 3.081,-1.846 4.929,-2.462 -12.933,-19.4 -16.936,-43.42 -11.394,-65.589 z"
       style="fill:#4b7ab7"
       id="path85" /><path
       inkscape:connector-curvature="0"
       d="m 280.525,93.304 c -0.925,-1.848 -1.232,-3.696 -2.157,-5.544 -3.694,1.848 -8.004,3.08 -12.008,3.696 1.232,1.848 2.155,3.694 3.694,4.926 3.696,-0.923 6.774,-1.848 10.471,-3.078 z"
       style="fill:#4b7ab7"
       id="path87" /><path
       inkscape:connector-curvature="0"
       d="m 181.678,4.619 c -1.846,-0.616 -3.694,-0.923 -5.542,-1.539 -4.926,21.246 -1.232,44.343 12.01,63.434 1.848,-0.923 4.311,-0.923 6.159,-1.539 C 180.755,47.423 176.752,24.942 181.678,4.619 Z"
       style="fill:#4b7ab7"
       id="path89" /><path
       inkscape:connector-curvature="0"
       d="M 208.161,63.743 C 192.765,48.346 187.836,27.1 192.456,7.699 190.61,7.39 188.762,6.467 186.914,5.851 c -4.619,20.016 0,41.571 13.858,58.198 2.154,0 4.616,-0.306 7.389,-0.306 z"
       style="fill:#4b7ab7"
       id="path91" /><path
       inkscape:connector-curvature="0"
       d="m 262.663,86.837 v 0 c 4.62,-0.616 9.239,-1.848 13.242,-3.696 -0.309,-1.846 -1.232,-3.694 -2.155,-5.233 -5.235,1.846 -10.778,3.387 -16.32,3.694 1.846,1.848 3.694,3.387 5.233,5.235 z"
       style="fill:#4b7ab7"
       id="path93" /><path
       inkscape:connector-curvature="0"
       d="M 216.475,56.659 C 203.85,44.649 199.846,27.713 202.926,12.01 c -1.848,-0.923 -3.696,-1.848 -5.542,-2.464 -4.003,17.554 0.923,37.568 14.779,51.426 1.541,0.923 2.464,2.155 3.696,3.078 5.542,0.616 11.084,1.848 16.629,3.387 -5.852,-2.462 -11.394,-6.159 -16.013,-10.778 z"
       style="fill:#4b7ab7"
       id="path95" /><path
       inkscape:connector-curvature="0"
       d="m 270.979,73.288 c -0.925,-1.848 -1.848,-3.696 -2.773,-4.926 -10.162,3.694 -20.939,3.694 -31.101,0.923 5.235,1.848 9.854,4.62 14.474,7.698 6.465,-0.001 13.24,-1.231 19.4,-3.695 z"
       style="fill:#4b7ab7"
       id="path97" /><path
       inkscape:connector-curvature="0"
       d="m 265.435,63.743 c -1.539,-1.848 -2.462,-3.387 -3.694,-5.235 -12.933,3.696 -27.407,0.616 -37.568,-9.545 -8.62,-8.93 -12.316,-20.939 -11.084,-32.333 -1.848,-0.923 -3.696,-1.848 -5.542,-2.464 -2.157,13.548 1.846,28.329 12.624,38.8 12.008,12.009 29.56,15.703 45.264,10.777 z"
       style="fill:#4b7ab7"
       id="path99" /><path
       inkscape:connector-curvature="0"
       d="m 258.044,53.888 c -1.539,-1.232 -2.771,-3.078 -4.31,-4.926 -7.698,0.923 -15.704,-1.848 -21.555,-8.007 -5.235,-4.926 -8.007,-11.394 -8.313,-17.859 -1.848,-0.925 -3.696,-2.464 -5.542,-3.387 -0.616,8.93 2.771,18.475 9.545,25.557 8.313,8.315 19.397,11.086 30.175,8.622 z"
       style="fill:#4b7ab7"
       id="path101" /><path
       inkscape:connector-curvature="0"
       d="m 249.115,43.727 c -5.851,-5.852 -12.316,-11.394 -19.4,-16.627 0.925,3.694 2.773,7.388 6.161,10.162 3.693,3.693 8.313,6.157 13.239,6.465 z"
       style="fill:#4b7ab7"
       id="path103" /></g><g
     id="g105"><path
       inkscape:connector-curvature="0"
       d="m 531.794,174.904 c 2.462,12.935 7.391,22.48 19.398,26.174 14.474,4.312 32.333,3.387 41.265,-8.313 3.078,-4.003 3.694,-10.162 2.155,-15.088 -2.155,-8.006 -9.238,-9.854 -23.094,-12.625 -12.009,-2.771 -41.571,-5.852 -57.275,-17.861 -12.626,-9.545 -19.091,-28.021 -12.626,-48.343 7.698,-21.864 29.869,-31.41 46.498,-33.872 30.794,-4.619 55.736,7.082 66.512,18.166 8.315,8.623 13.858,22.48 13.242,36.029 h -34.181 c -0.307,-4.312 -0.923,-8.313 -2.771,-12.009 -4.003,-9.239 -13.855,-14.781 -24.326,-14.781 -12.007,-0.923 -24.633,2.155 -29.56,12.317 -1.848,3.696 -1.848,10.162 1.23,13.858 7.391,8.313 21.864,8.929 34.181,11.084 21.246,3.696 44.342,7.39 54.504,24.942 11.701,20.323 5.233,43.419 -2.157,52.656 -5.233,6.467 -11.084,12.319 -19.091,16.936 -13.24,7.39 -36.027,10.162 -58.198,6.467 -20.323,-3.08 -34.181,-13.242 -41.878,-25.865 -6.158,-9.548 -9.854,-17.861 -9.854,-29.871 h 36.026 z"
       style="fill:#0e2180"
       id="path107" /><path
       inkscape:connector-curvature="0"
       d="m 376.905,130.563 h 57.892 c 0.923,-13.242 -9.239,-28.023 -22.788,-32.333 -12.007,-3.696 -24.942,-1.232 -35.718,7.391 -9.547,8.929 -12.935,27.404 -12.935,38.798 0.616,21.555 4.619,36.952 17.245,46.19 8.313,5.85 26.791,13.856 43.417,1.846 7.391,-5.542 10.778,-12.933 12.01,-18.475 h 41.262 c -0.923,12.933 -13.549,33.565 -25.865,42.801 -22.171,16.322 -51.424,19.4 -74.211,10.778 -49.269,-18.475 -57.275,-65.589 -53.579,-93.609 1.846,-11.703 6.158,-23.71 12.007,-34.181 11.703,-18.475 28.33,-31.408 51.424,-35.104 24.942,-3.694 49.885,4.003 66.207,22.171 9.236,10.471 17.859,28.021 21.246,42.494 1.848,9.545 3.694,19.707 2.771,30.178 H 376.905 Z"
       style="fill:#0e2180"
       id="path109" /><g
       id="g111"><path
         inkscape:connector-curvature="0"
         d="m 723.634,201.078 v 29.562 c 12.933,-2.771 23.094,-8.623 32.949,-16.629 0.307,2.464 2.771,11.087 4.619,13.549 H 800 C 793.841,215.552 794.765,198 794.765,188.146 V 138.57 c -0.307,-12.935 -0.307,-25.868 -3.078,-37.875 C 788.916,88.685 778.138,68.669 743.957,64.666 737.49,64.05 730.715,64.05 723.634,64.05 v 29.562 c 9.238,-0.307 18.475,1.848 24.942,8.006 4.31,4.003 5.542,9.545 4.31,15.704 -2.462,9.546 -12.933,12.933 -29.252,15.088 v 25.251 c 4.31,-0.309 8.929,-1.232 13.855,-2.771 10.162,-2.155 12.626,-4.003 17.552,-7.7 0,3.696 0.616,29.871 -1.846,35.104 -4.003,11.087 -15.705,17.552 -29.561,18.784 z"
         style="fill:#0e2180"
         id="path113" /><path
         inkscape:connector-curvature="0"
         d="M 723.634,93.611 V 64.049 c -11.394,0.616 -23.71,2.464 -33.256,6.159 -20.323,8.315 -30.487,28.022 -30.487,48.961 h 36.952 c -0.923,-10.777 6.774,-20.323 14.474,-23.094 3.078,-1.541 7.697,-2.464 12.317,-2.464 z"
         style="fill:#0e2180"
         id="path115" /><path
         inkscape:connector-curvature="0"
         d="M 723.634,157.661 V 132.41 c -5.542,0.925 -12.01,1.541 -19.091,2.464 -19.4,2.155 -47.114,11.701 -53.581,40.03 -2.155,11.086 -0.307,31.41 16.629,44.651 11.701,8.929 27.714,12.933 40.339,12.624 5.542,0 11.084,-0.616 15.704,-1.539 v -29.562 c -2.771,0.616 -5.852,0.923 -9.239,0.616 -9.239,0 -17.243,-4.62 -20.323,-11.701 -3.694,-6.774 -1.539,-13.858 0.923,-17.861 5.544,-9.852 15.09,-11.7 28.639,-14.471 z"
         style="fill:#0e2180"
         id="path117" /></g></g></g><path
   inkscape:connector-curvature="0"
   style="fill:#0e2180;fill-opacity:1;stroke-width:0.10576203"
   id="path1927"
   d="m 159.63118,15.976508 c 0.01,0.05353 0.0159,0.111243 0.0237,0.16633 0.0157,0.0914 0.0191,0.183894 0.0223,0.276341 0.002,0.09547 0.002,0.190983 0.002,0.286482 -3.2e-4,0.08082 5e-4,0.161647 0.001,0.242468 3.2e-4,0.06033 1e-4,0.120664 2.1e-4,0.180997 -3e-5,0.06236 -2.1e-4,0.124725 -2.1e-4,0.187086 -0.002,0.09313 -0.002,0.186271 -0.001,0.279411 0.007,0.06181 -0.004,0.122361 -0.008,0.183333 -0.0268,0.16148 -0.39686,0.358498 -0.32741,0.115626 0.0446,-0.153685 0.0487,-0.312743 0.0528,-0.471301 -1e-4,-0.09045 -0.002,-0.180886 -0.004,-0.271315 -0.003,-0.06755 0.01,-0.134216 0.0192,-0.200758 0.0115,-0.06648 0.0285,-0.131724 0.0447,-0.197106 0.0153,-0.05302 0.0296,-0.106236 0.0448,-0.159242 0.0143,-0.05074 0.0153,-0.103321 0.0185,-0.155475 0.003,-0.04985 -0.0276,-0.07735 -0.0514,-0.115792 -0.0298,-0.03727 -0.0593,-0.0747 -0.0893,-0.111809 -0.0215,-0.03308 -0.0434,-0.06586 -0.0656,-0.09835 -0.007,-0.0403 -0.0324,-0.07035 -0.0496,-0.105793 -0.009,-0.01354 -0.019,-0.02616 -0.0285,-0.03916 l 0.33216,-0.198107 c 0.0102,0.01497 0.0206,0.02986 0.0307,0.04489 0.019,0.03468 0.0423,0.06584 0.0496,0.105768 0.0209,0.03084 0.0423,0.06166 0.0623,0.09329 0.0291,0.037 0.0577,0.07431 0.0871,0.110946 0.0313,0.04524 0.0643,0.08219 0.0655,0.140723 -0.002,0.05457 -0.003,0.109488 -0.0149,0.163092 -0.0161,0.05344 -0.0287,0.10754 -0.045,0.161004 -0.0172,0.06413 -0.0361,0.12796 -0.0467,0.193721 -0.01,0.06415 -0.0241,0.128747 -0.0227,0.194024 2.1e-4,0.09187 9.9e-4,0.183748 -0.002,0.275593 -0.006,0.160057 -0.0101,0.320793 -0.0474,0.477445 -0.0249,0.155887 -0.40174,0.4339 -0.3592,0.21638 0.008,-0.0596 0.0222,-0.117441 0.0151,-0.178648 4.9e-4,-0.09283 0.001,-0.185656 -0.001,-0.278472 -4e-5,-0.06228 -2.1e-4,-0.124561 -2.1e-4,-0.18684 5e-5,-0.06042 -2.1e-4,-0.12083 2.1e-4,-0.181244 5e-4,-0.08128 0.002,-0.162571 0.002,-0.243861 1e-4,-0.09519 0,-0.190389 -0.002,-0.285568 -0.004,-0.09075 -0.006,-0.181717 -0.0211,-0.27151 -0.009,-0.05595 -0.0118,-0.115596 -0.0335,-0.16803 z" /><path
   inkscape:connector-curvature="0"
   style="fill:#0e2180;fill-opacity:1;stroke-width:0.10576203"
   id="path1929"
   d="m 159.57925,16.573779 c -0.004,0.06871 -0.004,0.137564 -0.005,0.20636 -0.001,0.12337 -5e-4,0.246749 -1.1e-4,0.370121 4.2e-4,0.121243 0.0276,0.238757 0.0571,0.355456 0.0284,0.07362 0.048,0.14929 0.0665,0.225614 0.009,0.06565 0.008,0.132094 0.009,0.198217 -0.005,0.05262 0.0146,0.09972 0.0281,0.149147 0.0135,0.04419 0.037,0.08389 0.0585,0.124375 0.0225,0.03514 0.0363,0.07451 0.0537,0.111896 0.009,0.04232 -3.2e-4,0.08538 -0.005,0.127798 -5e-5,0.01592 -0.003,0.03154 -0.005,0.04731 l -0.34656,0.168123 c 0.002,-0.01452 0.0118,-0.02781 0.007,-0.04356 0.004,-0.03803 0.007,-0.07619 0.0113,-0.114167 -0.0159,-0.03486 -0.0286,-0.07165 -0.0495,-0.104456 -0.0226,-0.04362 -0.0472,-0.08646 -0.0621,-0.133612 -0.0168,-0.05193 -0.036,-0.103107 -0.0321,-0.158792 -4.3e-4,-0.06416 9.9e-4,-0.128534 -0.007,-0.192388 -0.0158,-0.07628 -0.0327,-0.151871 -0.0603,-0.225201 -0.0298,-0.119684 -0.0575,-0.240196 -0.0614,-0.364114 3.1e-4,-0.123327 9.9e-4,-0.246661 -1.1e-4,-0.369985 -5e-4,-0.0672 -5e-4,-0.134465 -0.005,-0.201581 z" /><path
   inkscape:connector-curvature="0"
   style="fill:#0e2180;fill-opacity:1;stroke-width:0.10576203"
   id="path1931"
   d="m 159.38853,18.587876 c -0.008,-0.04538 -0.0129,-0.09173 -0.0183,-0.137704 -0.004,-0.03746 -0.004,-0.0751 -0.005,-0.112659 l 0.34194,-0.17504 c 0.001,0.03685 0.001,0.07375 0.004,0.110537 0.005,0.04645 0.006,0.09475 0.0243,0.138304 z" /><path
   inkscape:connector-curvature="0"
   style="fill:#0e2180;fill-opacity:1;stroke-width:0.10576203"
   id="path1933"
   d="m 159.65715,23.03988 c -0.002,0.04429 -0.002,0.08865 -0.002,0.132978 -2.1e-4,0.06445 1.1e-4,0.128899 4.2e-4,0.193348 -0.004,0.05451 0.004,0.107642 0.0104,0.161415 0.0107,0.07154 0.0118,0.143924 0.0136,0.21608 0.001,0.08026 0.001,0.160526 0.002,0.240791 5e-4,0.06966 2.1e-4,0.139325 2.1e-4,0.208987 -2e-5,0.06771 5e-5,0.135412 2.2e-4,0.203119 -0.002,0.0768 -5e-4,0.1536 -2.2e-4,0.2304 4.3e-4,0.05746 5e-4,0.114913 5e-4,0.172369 7e-5,0.0519 5e-5,0.103791 6e-5,0.155687 -0.001,0.05003 9.9e-4,0.100137 0.002,0.149997 -0.0202,0.03904 0.0216,0.06321 0.0281,0.08241 0.0443,0.01389 0.0642,0.05109 0.0935,0.08187 0.01,0.0145 0.0122,0.03188 0.0184,0.04783 l -0.33772,0.184658 c -7e-5,-2.11e-4 -0.01,-0.0384 -0.0133,-0.03828 -0.0271,-0.02214 -0.0464,-0.05575 -0.0846,-0.0656 -0.0245,-0.03945 -0.0573,-0.05682 -0.045,-0.113492 -0.002,-0.0513 -0.007,-0.103112 -0.004,-0.154869 0,-0.05191 -2e-5,-0.103829 6e-5,-0.155745 1e-4,-0.0577 2.1e-4,-0.115392 5e-4,-0.173088 4.2e-4,-0.07673 9.9e-4,-0.153456 -2.1e-4,-0.230178 2.1e-4,-0.06779 2.1e-4,-0.135585 3.2e-4,-0.203378 6e-5,-0.06979 -1.1e-4,-0.139578 4.9e-4,-0.209365 7e-5,-0.08004 5e-4,-0.160086 -4.9e-4,-0.240119 -0.002,-0.07039 -0.003,-0.141011 -0.0131,-0.210819 -0.009,-0.05542 -0.0179,-0.109995 -0.0131,-0.16644 2e-4,-0.06459 4.9e-4,-0.129177 4.2e-4,-0.193765 -5e-4,-0.04341 -4.2e-4,-0.08687 -0.002,-0.130236 z" /><path
   inkscape:connector-curvature="0"
   style="fill:#0e2180;fill-opacity:1;stroke-width:0.10576203"
   id="path1935"
   d="m 159.68312,30.285029 c -0.002,0.03922 -0.001,0.07852 -0.002,0.117779 -1.1e-4,0.05342 -5e-5,0.106849 -2e-5,0.160274 4.2e-4,0.05838 -3.2e-4,0.116754 -10e-4,0.175129 0.006,0.120493 0.0326,0.239038 0.0519,0.35799 0.0146,0.09808 0.0212,0.196885 0.0253,0.29585 0.001,0.07791 0.001,0.155837 0.001,0.233756 -2.2e-4,0.0889 -0.001,0.177784 -0.002,0.266676 -5e-4,0.08988 4.9e-4,0.179764 0.002,0.269641 -0.005,0.06856 0.003,0.135902 0.0107,0.203784 0.01,0.05664 0.0117,0.113938 0.0148,0.171132 -0.004,0.05199 0.006,0.102485 0.0116,0.153678 0.01,0.05214 0.0216,0.103856 0.0322,0.155844 0.01,0.05202 0.007,0.104863 0.008,0.157255 4.9e-4,0.01853 -0.0107,0.03324 -0.0161,0.04987 l -0.351,0.157383 c 0.007,-0.01223 0.0182,-0.02234 0.0219,-0.0367 9.9e-4,-0.04879 0.007,-0.09891 -0.002,-0.148119 -0.0107,-0.05175 -0.0204,-0.103842 -0.0319,-0.155367 -0.009,-0.0527 -0.0175,-0.104563 -0.014,-0.158314 -0.002,-0.05618 -0.004,-0.11247 -0.0119,-0.168195 -0.008,-0.06943 -0.0173,-0.138303 -0.0128,-0.208512 9.9e-4,-0.09044 0.002,-0.180884 0.002,-0.27133 -5e-4,-0.08845 -0.002,-0.176897 -0.001,-0.26535 2.1e-4,-0.07765 5e-4,-0.1553 -3.2e-4,-0.232945 -0.002,-0.09828 -0.005,-0.196674 -0.0185,-0.294232 -0.0187,-0.120346 -0.0439,-0.239559 -0.0595,-0.360226 -5e-4,-0.05807 -0.001,-0.116143 -9.9e-4,-0.174221 2e-5,-0.05342 9e-5,-0.106837 -2e-5,-0.160255 -4.3e-4,-0.03857 2.1e-4,-0.07718 -0.002,-0.115706 z" /><path
   inkscape:connector-curvature="0"
   style="fill:#0e2180;fill-opacity:1;stroke-width:0.10576203"
   id="path1937"
   d="m 159.70909,30.233092 c -0.001,0.034 -0.001,0.06804 -0.002,0.102064 -5e-4,0.05773 -2.1e-4,0.115454 -1.1e-4,0.173181 -0.004,0.04992 0.003,0.09937 0.006,0.148675 l -0.3397,0.181479 c -0.005,-0.05172 -0.0144,-0.103121 -0.009,-0.155818 1e-4,-0.05767 3.2e-4,-0.11535 -1.1e-4,-0.173022 -4.9e-4,-0.03333 -4.9e-4,-0.06669 -0.002,-0.1 z" /><path
   inkscape:connector-curvature="0"
   style="fill:#0e2180;fill-opacity:1;stroke-width:0.10576203"
   id="path1939"
   d="m 159.76102,30.233092 c -0.001,0.03291 -0.001,0.06588 -0.002,0.09882 -3.2e-4,0.0511 -2.1e-4,0.1022 -3.2e-4,0.1533 l -0.34247,0.174496 c -3e-5,-0.05101 10e-6,-0.102015 -3.1e-4,-0.153023 -4.3e-4,-0.03234 -1.1e-4,-0.06472 -0.002,-0.09703 z" /><path
   inkscape:connector-curvature="0"
   style="fill:#0e2180;fill-opacity:1;stroke-width:0.10576203"
   id="path1941"
   d="m 159.23718,30.572507 c -0.0363,-0.02714 0.007,-0.05933 0.01,-0.08186 0.007,-0.0032 0.008,-0.01057 0.0121,-0.01584 l 0.34875,-0.167629 c 0,1.1e-5 -0.001,0.03198 -0.005,0.03198 -0.0109,0.0096 -0.0293,0.027 -0.034,0.03028 z" /><path
   inkscape:connector-curvature="0"
   style="fill:#0e2180;fill-opacity:1;stroke-width:0.10576203"
   id="path1943"
   d="m 159.4885,23.062693 c 0.0321,0.0011 0.0642,8.46e-4 0.0963,0.0011 0.0474,-0.0031 0.0933,0.009 0.13949,0.01833 0.0428,0.01 0.0807,0.03192 0.11952,0.04811 0.13398,0.174397 -0.33654,0.190076 -0.34399,0.19287 -0.0202,-0.05733 -0.0651,-0.08641 -0.10423,-0.12435 -0.0456,-0.0134 -0.0924,0.0039 -0.13759,0.01155 -0.0493,0.02335 -0.0973,0.01219 -0.14818,0.01127 l 0.31385,-0.223375 c 0.0471,-0.0043 0.0946,-0.0018 0.1402,-0.02059 0.0542,-0.0053 0.10426,-0.01629 0.15462,0.01198 0.0439,0.04151 0.0847,0.08047 0.11135,0.13736 -0.10078,0.07449 -0.23888,0.314073 -0.31085,0.211477 -0.0362,-0.01226 -0.0723,-0.02726 -0.11008,-0.03538 -0.0452,-0.0069 -0.0892,-0.01841 -0.13556,-0.01296 -0.0332,3.17e-4 -0.0663,9e-5 -0.0995,0.0011 z" /><path
   inkscape:connector-curvature="0"
   style="fill:#0e2180;fill-opacity:1;stroke-width:0.10576203"
   id="path1945"
   d="m 159.65715,18.287685 c -0.004,0.0186 0.0257,0.02149 0.0381,0.03181 0.0314,0.02456 0.0478,0.06223 0.0693,0.09492 0.0251,0.03278 0.0385,0.07169 0.0564,0.107971 l -0.33767,0.185893 c -0.0162,-0.03267 -0.0278,-0.06839 -0.051,-0.09774 -0.0188,-0.02809 -0.032,-0.06216 -0.0611,-0.08092 -0.0212,-0.02045 -0.0608,-0.02843 -0.0606,-0.06538 z" /></svg>