<?xml version="1.0" encoding="UTF-8"?>
<!-- To add translation, please edit inside <switch> below using text editor. -->
<svg xmlns="http://www.w3.org/2000/svg" viewBox="0 0 256 68.27" width="512" height="137">
  <g stroke="#666" stroke-width=".6" transform="translate(0 49.5)">
    <circle cx="24.4" r="13.3"/>
    <circle cx="58" r="13.3"/>
    <circle cx="92" r="13.3" fill="#c33"/>
    <circle cx="126" r="13.3" fill="#c63"/>
    <circle cx="161" r="13.3" fill="#c90"/>
    <circle cx="194" r="13.3" fill="#066"/>
    <circle cx="228" r="13.3" fill="#066"/>
  </g>
  <path fill="#c33" d="m16.3 54.1v-8.93h6.82v1.51h-4.96v1.98h4.62v1.5h-4.62v2.43h5.14v1.5zm7.65 0 3.14-4.66-2.85-4.27h2.17l1.84 2.87 1.81-2.87h2.15l-2.86 4.34 3.14 4.6h-2.24l-2.04-3.09-2.05 3.09z"/>
  <path fill="#fff" d="m48.4 54.1v-8.93h6.82v1.51h-4.96v1.98h4.62v1.5h-4.62v2.43h5.14v1.5zm9.89 0-2.2-8.93h1.9l1.39 6.14 1.68-6.14h2.21l1.61 6.24 1.41-6.24h1.87l-2.23 8.93h-1.97l-1.83-6.68-1.83 6.68z"/>
  <path fill="#fcc" d="m89.3 50.8 1.8.555c-.276.975-.735 1.7-1.38 2.17-.642.473-1.46.71-2.44.71-1.22 0-2.23-.405-3.01-1.22-.786-.811-1.18-1.92-1.18-3.32 0-1.49.395-2.64 1.19-3.46.791-.823 1.83-1.23 3.12-1.23 1.12 1e-5 2.04.323 2.74.969.418.382.732.93.941 1.64l-1.84.427c-.109-.463-.336-.829-.681-1.1-.345-.268-.764-.402-1.26-.402-.682 9e-6-1.24.238-1.66.713-.425.475-.637 1.24-.637 2.31-2e-6 1.13.209 1.93.628 2.41.418.479.962.719 1.63.719.494 2e-6.918-.152 1.27-.457.356-.305.611-.784.766-1.44zm3.41 3.28v-8.93h3.91c.983 8e-6 1.7.0802 2.14.241.446.16.802.446 1.07.856s.402.88.402 1.41c-1e-5.67-.203 1.22-.609 1.66-.406.437-1.01.712-1.82.826.402.228.733.477.995.75s.614.756 1.06 1.45l1.12 1.74h-2.22l-1.34-1.94c-.477-.695-.803-1.13-.979-1.31-.176-.181-.362-.305-.558-.372-.197-.067-.508-.101-.935-.101h-.376v3.73zm1.86-5.16h1.37c.891 4e-6 1.45-.0366 1.67-.11.222-.0731.395-.199.521-.378s.188-.402.188-.67c-7e-6-.301-.0826-.543-.248-.728-.165-.185-.398-.302-.7-.35-.151-.0203-.602-.0305-1.36-.0305h-1.45z"/>
  <path fill="#fc9" d="m118 54.1v-8.93h6.82v1.51h-4.96v1.98h4.62v1.5h-4.62v2.43h5.14v1.5zm8.6 0v-8.93h1.81l3.76 5.97v-5.97h1.73v8.93h-1.86l-3.71-5.83v5.83z"/>
  <path fill="#ffc" d="m155 54.1-3.29-8.93h2.01l2.33 6.61 2.25-6.61h1.97l-3.29 8.93zm6.22-8.93h1.86v4.84c0 .768.0231 1.27.0691 1.49.0795.366.269.659.568.881s.708.332 1.23.332c.527 1e-6.924-.105 1.19-.314.268-.209.429-.466.483-.771.0543-.305.0816-.811.0816-1.52v-4.94h1.86v4.69c0 1.07-.0502 1.83-.151 2.27-.1.443-.286.817-.555 1.12-.27.305-.631.548-1.08.728s-1.04.271-1.77.271c-.878 0-1.54-.0985-2-.296-.454-.197-.813-.453-1.08-.768-.264-.315-.437-.645-.521-.99-.121-.512-.182-1.27-.182-2.27z"/>
  <path fill="#9c9" d="m186 54.1v-8.93h1.81l3.76 5.97v-5.97h1.73v8.93h-1.86l-3.71-5.83v5.83zm11.3 0v-7.42h-2.73v-1.51h7.31v1.51h-2.72v7.42z"/>
  <path fill="#fff" d="m220 54.1v-8.86h1.86v7.36h4.62v1.5zm13.7-3.28 1.8.555c-.276.975-.735 1.7-1.38 2.17-.642.473-1.46.71-2.44.71-1.22 0-2.23-.405-3.01-1.22-.786-.811-1.18-1.92-1.18-3.32 0-1.49.395-2.64 1.19-3.46.791-.823 1.83-1.23 3.12-1.23 1.12 8e-6 2.04.323 2.74.969.418.382.732.93.941 1.64l-1.84.427c-.109-.463-.336-.829-.681-1.1-.345-.268-.764-.402-1.26-.402-.682 8e-6-1.24.238-1.66.713-.425.475-.637 1.24-.637 2.31 0 1.13.209 1.93.628 2.41.418.479.962.719 1.63.719.494 2e-6.918-.152 1.27-.457.356-.305.611-.784.766-1.44z"/>
  <g>
    <path fill="#333" d="m90.8 31.6c-3.51 6e-6-6.27.244-8.28.731s-3.42 1.31-4.25 2.46c9e-5-1.59.559-2.81 1.68-3.66 1.12-.853 2.87-1.44 5.24-1.77 2.38-.328 5.58-.493 9.6-.493h18.4c2.46 8e-6 4.42-.0689 5.86-.207 1.44-.138 2.75-.461 3.91-.97 1.47-.806 2.28-1.52 2.42-2.15.708 1.05 2.04 1.88 3.99 2.48 1.87.562 4.66.843 8.36.843h20.8c5.97 8e-6 9.92.498 11.8 1.49 1.95.954 2.93 2.43 2.93 4.44-1.05-1.21-2.51-2.04-4.4-2.5-1.88-.461-4.58-.692-8.09-.692h-21.2c-4.19 6e-6-7.4-.246-9.62-.739s-3.77-1.44-4.65-2.84c-.821 1.44-2.41 2.4-4.78 2.87-2.36.472-5.81.707-10.3.707z"/>
    <path stroke="#333" d="m24.4 25.1v7.66"/>
    <path stroke="#333" d="m227 25.1v7.66"/>
  </g>
  <g fill="#333" font-family="sans-serif" font-size="11" text-anchor="middle">
  <switch>
    <text systemLanguage="de" id="txex-de"><tspan id="tspex-de" x="44.7" y="22.2">Ausgestorben</tspan></text>
    <text systemLanguage="fr" id="txex-fr"><tspan id="tspex-fr" x="24.7" y="22.2">Éteint</tspan></text>
    <text systemLanguage="hu" id="txex-hu"><tspan id="tspex-hu" x="24.7" y="22.2">Kihalt</tspan></text>
    <text systemLanguage="id" id="txex-id"><tspan id="tspex-id" x="24.7" y="22.2">Punah</tspan></text>
    <text systemLanguage="ja" id="txex-ja"><tspan id="tspex-ja" x="24.7" y="22.2">絶滅</tspan></text>
    
  <text id="txex-vi" systemLanguage="vi"><tspan id="tspex-vi" x="25.7" y="22.2">T. chủng</tspan></text><text id="txex-my" systemLanguage="my"><tspan id="tspex-my" x="25.7" y="22.2">မျိုးသုဉ်းခြင်း</tspan></text><text id="txex-yi" systemLanguage="yi"><tspan id="tspex-yi" x="25.7" y="22.2">אויסגעשטארבן</tspan></text><text id="txex"><tspan id="tspex" x="25.7" y="22.2">Extinct</tspan></text></switch>
  <switch>
    <text systemLanguage="de" id="txth-de"><tspan id="tspth-de" x="124.3" y="22.2">Gefährdet</tspan></text>
    <text systemLanguage="fr" id="txth-fr"><tspan id="tspth-fr" x="124.3" y="22.2">Menacé</tspan></text>
    <text systemLanguage="hu" id="txth-hu"><tspan id="tspth-hu" x="125.3" y="22.2">Veszélyeztetett</tspan></text>
    <text systemLanguage="id" id="txth-id"><tspan id="tspth-id" x="125.3" y="22.2">Terancam</tspan></text>
    <text systemLanguage="ja" id="txth-ja"><tspan id="tspth-ja" x="125.3" y="22.2">絶滅危惧</tspan></text>
    
  <text id="txth-vi" systemLanguage="vi"><tspan id="tspth-vi" x="125.8" y="22.2">Bị đe dọa</tspan></text><text id="txth-my" systemLanguage="my"><tspan id="tspth-my" x="125.8" y="22.2">အန္တရာယ်ကျရောက်</tspan></text><text id="txth-yi" systemLanguage="yi"><tspan id="tspth-yi" x="125.8" y="22.2">געסטראשעטער</tspan></text><text id="txth"><tspan id="tspth" x="125.8" y="22.2">Threatened</tspan></text></switch>
  <switch>
    <text systemLanguage="de" id="txLC1-de"><tspan id="tspLC1-de" x="226.6" y="11.4">Nicht</tspan></text>
    <text systemLanguage="fr" id="txLC1-fr"><tspan id="tspLC1-fr" x="223.6" y="11.4">Préoccup.</tspan></text>
    <text systemLanguage="hu" id="txLC1-hu"><tspan id="tspLC1-hu" x="225.6" y="11.4">Nem</tspan></text>
    <text systemLanguage="id" id="txLC1-id"><tspan id="tspLC1-id" x="225.6" y="11.4">Risiko</tspan></text>
    
    
  <text id="txLC1-vi" systemLanguage="vi"><tspan id="tspLC1-vi" x="226.6" y="11.4">Ít</tspan></text><text id="txLC1-my" systemLanguage="my"><tspan id="tspLC1-my" x="226.6" y="11.4">အနည်းဆုံး</tspan></text><text id="txLC1-yi" systemLanguage="yi"><tspan id="tspLC1-yi" x="226.6" y="11.4">נישט</tspan></text><text id="txLC1"><tspan id="tspLC1" x="226.6" y="11.4">Least</tspan></text></switch>
  <switch>
    <text systemLanguage="de" id="txLC2-de"><tspan id="tspLC2-de" x="220.0" y="22.1">Gefährdet</tspan></text>
    <text systemLanguage="fr" id="txLC2-fr"><tspan id="tspLC2-fr" x="227.0" y="22.1">min.</tspan></text>
    <text systemLanguage="hu" id="txLC2-hu"><tspan id="tspLC2-hu" x="227.0" y="22.1">vesz.</tspan></text>
    <text systemLanguage="id" id="txLC2-id"><tspan id="tspLC2-id" x="226.0" y="22.1">rendah</tspan></text>
    <text systemLanguage="ja" id="txLC2-ja"><tspan id="tspLC2-ja" x="226.0" y="22.1">低危険種</tspan></text>
    
  <text id="txLC2-vi" systemLanguage="vi"><tspan id="tspLC2-vi" x="226.0" y="22.1">quan tâm</tspan></text><text id="txLC2-my" systemLanguage="my"><tspan id="tspLC2-my" x="226.0" y="22.1">စိုးရိမ်စရာ</tspan></text><text id="txLC2-yi" systemLanguage="yi"><tspan id="tspLC2-yi" x="226.0" y="22.1">געסטראשעטער</tspan></text><text id="txLC2"><tspan id="tspLC2" x="226.0" y="22.1">Concern</tspan></text></switch>
  </g>
</svg>
