<svg xmlns="http://www.w3.org/2000/svg" width="18" height="15.107" viewBox="0 0 18 15.107"><path d="M17.518,70.25H.482A.482.482,0,0,1,0,69.768V68.482A.482.482,0,0,1,.482,68H17.518a.482.482,0,0,1,.482.482v1.286A.482.482,0,0,1,17.518,70.25Zm0,6.429H.482A.482.482,0,0,1,0,76.2V74.911a.482.482,0,0,1,.482-.482H17.518a.482.482,0,0,1,.482.482V76.2A.482.482,0,0,1,17.518,76.679Zm0,6.429H.482A.482.482,0,0,1,0,82.625V81.339a.482.482,0,0,1,.482-.482H17.518a.482.482,0,0,1,.482.482v1.286A.482.482,0,0,1,17.518,83.107Z" transform="translate(0 -68)" fill="#fff"/></svg>