<svg xmlns="http://www.w3.org/2000/svg" width="222.004" height="11.68" viewBox="0 0 222.004 11.68"><path d="M8.048-5.552a.407.407,0,0,0,0-.48l-2-3.152a.525.525,0,0,0-.4-.288H3.872c-.176,0-.24.144-.16.3L5.04-6.784h-3.9a.294.294,0,0,0-.3.3V-5.1a.294.294,0,0,0,.3.3h3.9L3.728-2.416c-.08.16-.016.3.16.3H5.664a.525.525,0,0,0,.4-.288ZM21.76-9.664v-1.392a.294.294,0,0,0-.3-.3H14.224a.294.294,0,0,0-.3.3v1.392a.294.294,0,0,0,.3.3h2.544V-.3a.294.294,0,0,0,.3.3h1.552a.294.294,0,0,0,.3-.3V-9.36h2.528A.294.294,0,0,0,21.76-9.664ZM31.04-.3V-11.056a.294.294,0,0,0-.3-.3H29.184a.294.294,0,0,0-.3.3V-6.8H25.36v-4.256a.294.294,0,0,0-.3-.3H23.5a.294.294,0,0,0-.3.3V-.3a.294.294,0,0,0,.3.3h1.552a.294.294,0,0,0,.3-.3V-4.8h3.52V-.3a.294.294,0,0,0,.3.3h1.552A.294.294,0,0,0,31.04-.3Zm8.4,0V-1.7a.294.294,0,0,0-.3-.3H35.12V-4.8h3.7a.294.294,0,0,0,.3-.3V-6.5a.294.294,0,0,0-.3-.3h-3.7V-9.36h4.016a.294.294,0,0,0,.3-.3v-1.392a.294.294,0,0,0-.3-.3H33.264a.294.294,0,0,0-.3.3V-.3a.294.294,0,0,0,.3.3h5.872A.294.294,0,0,0,39.44-.3ZM52-.3V-1.7a.294.294,0,0,0-.3-.3H47.68V-4.8h3.7a.294.294,0,0,0,.3-.3V-6.5a.294.294,0,0,0-.3-.3h-3.7V-9.36H51.7a.294.294,0,0,0,.3-.3v-1.392a.294.294,0,0,0-.3-.3H45.824a.294.294,0,0,0-.3.3V-.3a.294.294,0,0,0,.3.3H51.7A.294.294,0,0,0,52-.3ZM61.36-4.16v-6.9a.294.294,0,0,0-.3-.3H59.5a.294.294,0,0,0-.3.3v6.9c0,1.328-.4,2.32-1.76,2.32s-1.76-.992-1.76-2.32v-6.9a.294.294,0,0,0-.3-.3H53.824a.294.294,0,0,0-.3.3v6.9C53.52-1.1,54.944.16,57.44.16S61.36-1.1,61.36-4.16ZM71.088-.32,68.512-4.64c1.44-.368,2.288-1.392,2.288-3.28,0-2.448-1.376-3.44-3.68-3.44H63.584a.294.294,0,0,0-.3.3V-.3a.294.294,0,0,0,.3.3h1.552a.294.294,0,0,0,.3-.3V-4.48h.784L68.7-.3c.1.144.208.3.384.3h1.824A.2.2,0,0,0,71.088-.32ZM68.64-7.92c0,1.168-.656,1.52-1.808,1.52H65.44V-9.44h1.44C68.032-9.44,68.64-9.088,68.64-7.92ZM80.24-4V-7.36c0-2.656-1.36-4.16-3.92-4.16s-3.92,1.5-3.92,4.16V-4c0,2.656,1.36,4.16,3.92,4.16S80.24-1.344,80.24-4Zm-2.16-.16c0,1.328-.4,2.32-1.76,2.32s-1.76-.992-1.76-2.32V-7.2c0-1.328.4-2.32,1.76-2.32s1.76.992,1.76,2.32Zm11.6-3.76c0-2.544-1.456-3.44-3.76-3.44H82.464a.294.294,0,0,0-.3.3V-.3a.294.294,0,0,0,.3.3h1.552a.294.294,0,0,0,.3-.3V-4.48h1.6C88.224-4.48,89.68-5.376,89.68-7.92Zm-2.16,0c0,1.12-.592,1.52-1.76,1.52H84.32V-9.44h1.44C86.928-9.44,87.52-9.04,87.52-7.92ZM97.92-.3V-1.7a.294.294,0,0,0-.3-.3H93.6V-4.8h3.7a.294.294,0,0,0,.3-.3V-6.5a.294.294,0,0,0-.3-.3H93.6V-9.36h4.016a.294.294,0,0,0,.3-.3v-1.392a.294.294,0,0,0-.3-.3H91.744a.294.294,0,0,0-.3.3V-.3a.294.294,0,0,0,.3.3h5.872A.294.294,0,0,0,97.92-.3ZM107.984-.32l-3.168-10.736a.39.39,0,0,0-.368-.3h-2.1a.39.39,0,0,0-.368.3L98.816-.32A.232.232,0,0,0,99.04,0h1.744a.356.356,0,0,0,.336-.3l.448-1.616h3.664L105.68-.3a.356.356,0,0,0,.336.3h1.744A.232.232,0,0,0,107.984-.32Zm-3.312-3.6h-2.544l1.28-4.608ZM117.04-.3V-11.056a.294.294,0,0,0-.3-.3h-1.552a.294.294,0,0,0-.3.3v6.48l-3.36-6.48c-.08-.16-.16-.3-.4-.3H109.5a.294.294,0,0,0-.3.3V-.3a.294.294,0,0,0,.3.3h1.552a.294.294,0,0,0,.3-.3v-6.48L114.72-.3a.449.449,0,0,0,.4.3h1.616A.294.294,0,0,0,117.04-.3Zm13.12-2.848v-.48a2.864,2.864,0,0,0-2.336-3.024l-1.36-.448c-.56-.192-.944-.48-.944-1.008v-.24c0-.768.416-1.168,1.52-1.168a21.794,21.794,0,0,1,2.656.256c.192.016.3-.08.3-.256v-1.408a.3.3,0,0,0-.3-.3,16.448,16.448,0,0,0-2.688-.288c-2,0-3.648.9-3.648,3.168v.4a2.683,2.683,0,0,0,2.032,2.816l1.36.448c.7.24,1.248.512,1.248,1.216v.32c0,.928-.464,1.312-1.68,1.312a20.137,20.137,0,0,1-2.72-.352c-.192-.032-.32.064-.32.24V-.5a.3.3,0,0,0,.3.3,16.122,16.122,0,0,0,2.864.352C128.912.16,130.16-.656,130.16-3.152Zm9.36-4.768c0-2.544-1.456-3.44-3.76-3.44H132.3a.294.294,0,0,0-.3.3V-.3a.294.294,0,0,0,.3.3h1.552a.294.294,0,0,0,.3-.3V-4.48h1.6C138.064-4.48,139.52-5.376,139.52-7.92Zm-2.16,0c0,1.12-.592,1.52-1.76,1.52h-1.44V-9.44h1.44C136.768-9.44,137.36-9.04,137.36-7.92Zm11.584,7.6-3.168-10.736a.39.39,0,0,0-.368-.3h-2.1a.39.39,0,0,0-.368.3L139.776-.32A.232.232,0,0,0,140,0h1.744a.356.356,0,0,0,.336-.3l.448-1.616h3.664L146.64-.3a.356.356,0,0,0,.336.3h1.744A.232.232,0,0,0,148.944-.32Zm-3.312-3.6h-2.544l1.28-4.608ZM156-.336v-1.44c0-.176-.112-.272-.3-.256a14.284,14.284,0,0,1-1.7.144c-1.456,0-1.84-.944-1.84-2.272V-7.2c0-1.328.4-2.272,1.76-2.272.72,0,1.76.128,1.76.128.192.016.32-.08.32-.256v-1.424a.307.307,0,0,0-.3-.32,11.12,11.12,0,0,0-1.776-.176c-2.56,0-3.92,1.5-3.92,4.16V-4c0,2.656,1.36,4.16,3.92,4.16A11.12,11.12,0,0,0,155.7-.016.307.307,0,0,0,156-.336Zm8.08.032V-1.7a.294.294,0,0,0-.3-.3H159.76V-4.8h3.7a.294.294,0,0,0,.3-.3V-6.5a.294.294,0,0,0-.3-.3h-3.7V-9.36h4.016a.294.294,0,0,0,.3-.3v-1.392a.294.294,0,0,0-.3-.3H157.9a.294.294,0,0,0-.3.3V-.3a.294.294,0,0,0,.3.3h5.872A.294.294,0,0,0,164.08-.3ZM178.624-.32l-3.168-10.736a.39.39,0,0,0-.368-.3h-2.1a.39.39,0,0,0-.368.3L169.456-.32a.232.232,0,0,0,.224.32h1.744a.356.356,0,0,0,.336-.3l.448-1.616h3.664L176.32-.3a.356.356,0,0,0,.336.3H178.4A.232.232,0,0,0,178.624-.32Zm-3.312-3.6h-2.544l1.28-4.608ZM187.52-.72V-6.176a.294.294,0,0,0-.3-.3h-3.472a.294.294,0,0,0-.3.3v1.392a.294.294,0,0,0,.3.3h1.616v2.352a5.255,5.255,0,0,1-1.7.288c-1.3,0-1.824-.848-1.824-2.32V-7.04c0-1.536.576-2.48,2.16-2.48a17.073,17.073,0,0,1,2.88.416.246.246,0,0,0,.32-.256v-1.36a.317.317,0,0,0-.3-.32,9.219,9.219,0,0,0-2.976-.48c-2.784,0-4.24,1.632-4.24,4.48V-4c0,2.672,1.248,4.16,3.92,4.16A9.543,9.543,0,0,0,187.52-.72Zm8.4.416V-1.7a.294.294,0,0,0-.3-.3H191.6V-4.8h3.7a.294.294,0,0,0,.3-.3V-6.5a.294.294,0,0,0-.3-.3h-3.7V-9.36h4.016a.294.294,0,0,0,.3-.3v-1.392a.294.294,0,0,0-.3-.3h-5.872a.294.294,0,0,0-.3.3V-.3a.294.294,0,0,0,.3.3h5.872A.294.294,0,0,0,195.92-.3Zm9.44,0V-11.056a.294.294,0,0,0-.3-.3H203.5a.294.294,0,0,0-.3.3v6.48l-3.36-6.48c-.08-.16-.16-.3-.4-.3h-1.616a.294.294,0,0,0-.3.3V-.3a.294.294,0,0,0,.3.3h1.552a.294.294,0,0,0,.3-.3v-6.48L203.04-.3a.449.449,0,0,0,.4.3h1.616A.294.294,0,0,0,205.36-.3Zm7.92-.032v-1.44c0-.176-.112-.272-.3-.256a14.284,14.284,0,0,1-1.7.144c-1.456,0-1.84-.944-1.84-2.272V-7.2c0-1.328.4-2.272,1.76-2.272.72,0,1.76.128,1.76.128.192.016.32-.08.32-.256v-1.424a.307.307,0,0,0-.3-.32,11.12,11.12,0,0,0-1.776-.176c-2.56,0-3.92,1.5-3.92,4.16V-4c0,2.656,1.36,4.16,3.92,4.16a11.12,11.12,0,0,0,1.776-.176A.307.307,0,0,0,213.28-.336Zm9.536-10.688a.237.237,0,0,0-.224-.336h-1.84c-.176,0-.24.144-.3.3l-1.92,4.9-1.936-4.9c-.064-.16-.128-.3-.3-.3h-1.84a.237.237,0,0,0-.224.336L217.44-3.6V-.3a.294.294,0,0,0,.3.3H219.3a.294.294,0,0,0,.3-.3V-3.6Z" transform="translate(-0.832 11.52)" fill="#fff"/></svg>