<?xml version="1.0" encoding="UTF-8" standalone="no"?>
<!DOCTYPE svg PUBLIC "-//W3C//DTD SVG 1.1//EN" "http://www.w3.org/Graphics/SVG/1.1/DTD/svg11.dtd">
<svg width="100%" height="100%" viewBox="0 0 143 107" version="1.1" xmlns="http://www.w3.org/2000/svg" xmlns:xlink="http://www.w3.org/1999/xlink" xml:space="preserve" xmlns:serif="http://www.serif.com/" style="fill-rule:evenodd;clip-rule:evenodd;stroke-linecap:round;stroke-linejoin:round;stroke-miterlimit:10;">
    <g transform="matrix(1.04646,0,0,1.04646,-3.3241,-2.47853)">
        <g>
            <path d="M60.46,36.19L63.88,27.95L68.9,29.62C70.29,27.67 71.98,26.01 73.87,24.66L72.2,19.64L80.45,16.22L82.82,20.95C85.11,20.57 87.48,20.55 89.84,20.95L92.21,16.22L100.45,19.64L98.78,24.66C100.73,26.05 102.39,27.74 103.74,29.63L108.76,27.96L112.18,36.2L107.45,38.57C107.83,40.86 107.85,43.23 107.45,45.59L112.18,47.96L108.76,56.2L103.74,54.53C102.35,56.48 100.66,58.14 98.77,59.49L100.44,64.51L92.2,67.93L89.83,63.2C87.54,63.58 85.17,63.6 82.81,63.2L80.44,67.93L72.19,64.51L73.86,59.49C71.91,58.1 70.25,56.41 68.9,54.52L63.88,56.19L60.46,47.95L65.19,45.58C64.81,43.29 64.79,40.92 65.19,38.56L60.46,36.19Z" style="fill:none;fill-rule:nonzero;stroke:rgb(0,174,157);stroke-width:3px;"/>
            <path d="M78.4,45.35C80.21,49.72 85.22,51.79 89.59,49.98C93.96,48.17 96.04,43.16 94.23,38.79C92.42,34.42 87.41,32.35 83.04,34.16C78.67,35.97 76.59,40.98 78.4,45.35Z" style="fill:none;fill-rule:nonzero;stroke:rgb(0,174,157);stroke-width:3px;"/>
            <path d="M53.75,40.05C52.5,37.04 49.05,35.61 46.04,36.86C43.03,38.11 41.6,41.56 42.85,44.57C43.37,45.82 44.26,46.79 45.35,47.42" style="fill:none;fill-rule:nonzero;stroke:rgb(0,174,157);stroke-width:3px;"/>
            <path d="M31.72,68.54L34.06,62.9L38.42,64.71C39.3,63.48 40.36,62.43 41.56,61.58L39.75,57.22L45.39,54.88L47.2,59.24C48.65,59 50.14,58.99 51.63,59.24L53.44,54.88L59.08,57.22L57.27,61.58C58.5,62.46 59.55,63.52 60.4,64.72L64.76,62.91L67.1,68.55L62.74,70.36C62.98,71.81 62.99,73.3 62.74,74.79L67.1,76.6L64.76,82.24L60.4,80.43C59.52,81.66 58.46,82.71 57.26,83.56L59.07,87.92L53.43,90.26L51.62,85.9C50.17,86.14 48.68,86.15 47.19,85.9L45.38,90.26L39.74,87.92L41.55,83.56C40.32,82.68 39.27,81.62 38.42,80.42L34.06,82.23L31.72,76.59L36.08,74.78C35.84,73.33 35.83,71.84 36.08,70.35L31.72,68.54Z" style="fill:none;fill-rule:nonzero;stroke:rgb(0,174,157);stroke-width:3px;"/>
            <path d="M37.98,50.53L33.8,52.56L31.17,47.16L35.35,45.13C35.03,43.72 34.93,42.26 35.09,40.78L30.7,39.26L32.66,33.59L37.05,35.11C37.84,33.85 38.82,32.76 39.94,31.85L37.91,27.67L43.31,25.04L45.34,29.22C46.75,28.9 48.21,28.8 49.69,28.96L51.21,24.57L56.88,26.53L55.36,30.92" style="fill:none;fill-rule:nonzero;stroke:rgb(0,174,157);stroke-width:3px;"/>
            <path d="M43.92,70.3C42.67,73.33 44.1,76.8 47.13,78.05C50.16,79.3 53.63,77.87 54.88,74.84C56.13,71.81 54.7,68.34 51.67,67.09C48.65,65.83 45.18,67.27 43.92,70.3Z" style="fill:none;fill-rule:nonzero;stroke:rgb(0,174,157);stroke-width:3px;"/>
        </g>
    </g>
</svg>
