<?xml version="1.0" encoding="UTF-8" standalone="no"?>
<!DOCTYPE svg PUBLIC "-//W3C//DTD SVG 1.1//EN" "http://www.w3.org/Graphics/SVG/1.1/DTD/svg11.dtd">
<svg width="100%" height="100%" viewBox="0 0 143 107" version="1.1" xmlns="http://www.w3.org/2000/svg" xmlns:xlink="http://www.w3.org/1999/xlink" xml:space="preserve" xmlns:serif="http://www.serif.com/" style="fill-rule:evenodd;clip-rule:evenodd;stroke-miterlimit:10;">
    <path d="M68.65,90.25C66.72,90.25 64.49,88.63 63.37,87.1L63.25,86.93L63.1,86.8C62.73,86.46 62.01,85.89 60.66,85.12C57.43,83.26 52.39,82.28 46.09,82.28C38.32,82.28 30.94,83.75 30.63,83.81C30.35,83.87 30.07,83.9 29.79,83.9C27.79,83.9 26.35,82.4 26.35,80.34L26.35,36.9C26.35,34.57 28.25,32.67 30.58,32.67L38.21,32.67L38.21,17.18C38.21,16.94 38.37,16.73 38.6,16.66C38.66,16.64 40.19,16.22 43,16.22C45.87,16.22 50.56,16.68 56.58,18.89C60.41,20.3 66.28,23.79 69.59,27.5L71.17,29.27L72.75,27.5C76.06,23.79 81.92,20.3 85.76,18.89C91.78,16.68 96.46,16.22 99.34,16.22C102.14,16.22 103.68,16.65 103.75,16.66C103.97,16.72 104.13,16.94 104.13,17.18L104.13,32.66L112.29,32.66C114.62,32.66 116.52,34.56 116.52,36.89L116.52,80.33C116.52,81.33 116.17,82.23 115.53,82.89C114.9,83.54 114.02,83.89 113.07,83.89C112.8,83.89 112.52,83.86 112.25,83.8C110.91,83.54 104.09,82.27 96.78,82.27C90.48,82.27 85.43,83.25 82.2,85.11C80.73,85.96 80.02,86.54 79.74,86.82L79.6,86.95L79.5,87.1C78.38,88.63 76.15,90.25 74.22,90.25L68.65,90.25ZM46.08,81.2C52.66,81.2 57.74,82.2 61.19,84.18C63.53,85.52 64.11,86.3 64.17,86.38C65.23,87.88 67.26,89.16 68.62,89.17L74.21,89.17C75.59,89.15 77.63,87.88 78.68,86.38C78.74,86.29 79.33,85.52 81.67,84.17C85.11,82.19 90.2,81.19 96.78,81.19C104.56,81.19 111.68,82.59 112.47,82.75L112.68,82.79L113.08,82.81C113.75,82.81 114.35,82.56 114.78,82.11C115.2,81.69 115.44,81.05 115.44,80.32L115.44,36.9C115.44,35.16 114.02,33.74 112.28,33.74L104.12,33.74L104.12,70.68C104.12,70.84 104.06,70.98 103.94,71.08C103.84,71.17 103.71,71.22 103.58,71.22C103.44,71.21 103.04,71.18 102.32,71.18C100.32,71.18 94.76,71.45 86.32,73.96C79.86,75.88 75.49,79.37 73.15,81.25C72.29,81.94 71.7,82.4 71.34,82.48L70.98,82.48C70.62,82.4 70.03,81.94 69.17,81.25C66.82,79.37 62.46,75.89 56,73.96C47.56,71.45 42,71.18 40,71.18C39.33,71.18 38.95,71.21 38.86,71.21L38.82,71.21C38.6,71.21 38.48,71.16 38.39,71.07C38.28,70.97 38.21,70.82 38.21,70.68L38.21,33.74L30.58,33.74C28.84,33.74 27.42,35.16 27.42,36.9L27.42,80.9L27.76,81.71L28.37,82.77L29.73,82.85L29.99,82.85L30.39,82.76C31.18,82.6 38.3,81.2 46.08,81.2ZM99.34,17.29C96.55,17.29 92,17.74 86.13,19.9C80.04,22.14 72.52,27.91 71.77,30.93L71.71,31.18L71.71,80.85L75.07,78.43C78.63,75.86 82.22,74.06 86.03,72.92C93.03,70.84 98.05,70.25 101.02,70.12L103.05,70.04L103.05,17.5L101.08,17.36C100.59,17.32 100,17.29 99.34,17.29ZM43,17.29C42.34,17.29 41.75,17.31 41.25,17.35L39.28,17.49L39.28,70.04L41.31,70.12C44.28,70.25 49.3,70.83 56.3,72.92C60.11,74.06 63.7,75.86 67.26,78.43L70.62,80.85L70.62,31.1L70.56,30.86C69.87,27.95 62.22,22.11 56.2,19.9C50.34,17.74 45.79,17.29 43,17.29Z" style="fill:rgb(0,174,157);fill-rule:nonzero;stroke:rgb(0,174,157);stroke-width:3px;"/>
</svg>
