<?xml version="1.0" encoding="UTF-8"?>
<!-- Generator: Adobe Illustrator 23.0.3, SVG Export Plug-In . SVG Version: 6.00 Build 0)  -->
<svg version="1.1" id="Layer_1" xmlns="http://www.w3.org/2000/svg" xmlns:xlink="http://www.w3.org/1999/xlink" x="0px" y="0px" viewBox="0 0 82.6 30" style="enable-background:new 0 0 82.6 30;" xml:space="preserve">
<style type="text/css">
	.st0{fill:#FFFFFF;}
</style>
<g transform="translate(-1475 -51)">
	<path class="st0" d="M1534.2,64.6c-1.3-0.2-2.8-0.3-3.6-1.2c-0.3-0.4-0.3-1-0.1-1.4c0.5-1.1,1.8-1.3,3.1-1.3c1.1,0,2,0.6,2.5,1.5   c0.2,0.4,0.2,0.8,0.3,1.3h3.6c0-1.4-0.5-2.7-1.3-3.8c-1.9-1.6-4.4-2.3-6.8-1.8c-2.1,0.2-4,1.5-4.8,3.5c-0.7,1.8-0.2,3.8,1.3,5   c1.6,1.3,4.7,1.5,6,1.8c1.4,0.3,2.1,0.5,2.4,1.3c0.1,0.5,0.1,1.1-0.2,1.5c-0.9,1.2-2.8,1.3-4.2,0.9c-1.3-0.4-1.7-1.3-2-2.7h-3.8   c0,1.1,0.3,2.2,1,3.1c1,1.5,2.6,2.5,4.3,2.7c2,0.4,4.2,0.2,6.1-0.7c0.7-0.4,1.4-1,1.9-1.7c1.1-1.6,1.2-3.8,0.2-5.5   C1538.8,65.3,1536.4,64.9,1534.2,64.6L1534.2,64.6z M1521.9,60.1c-1.8-1.9-4.3-2.7-6.8-2.3c-2.2,0.3-4.2,1.7-5.3,3.7   c-0.6,1.1-1,2.3-1.3,3.6c-0.4,2.9,0.4,7.8,5.6,9.7c2.6,0.9,5.5,0.5,7.7-1.1c1.4-1.1,2.3-2.7,2.7-4.4h-4.2c-0.2,0.8-0.6,1.5-1.3,1.9   c-1.4,0.9-3.2,0.8-4.5-0.2c-1.3-1-1.7-2.5-1.7-4.8c0-1.2,0.3-3.1,1.3-4c1-0.9,2.5-1.2,3.8-0.8c1.4,0.5,2.4,1.9,2.3,3.4h-6v3h10.4   c0-1.1,0-2.1-0.3-3.2C1523.7,63,1522.9,61.5,1521.9,60.1L1521.9,60.1z M1557.1,70.6v-5.2c0.1-1.3,0-2.6-0.3-3.9   c-0.3-1.3-1.3-3.3-4.9-3.8h-2.1c-1.2,0-2.4,0.2-3.5,0.6c-2,0.9-3.3,2.9-3.2,5.1h3.9c-0.1-1,0.5-2,1.4-2.4c0.4-0.1,0.8-0.2,1.3-0.2   c0.9-0.1,1.9,0.2,2.6,0.8c0.4,0.4,0.6,1.1,0.4,1.6c-0.2,1-1.3,1.3-3,1.5l0,0c-0.6,0.1-1.3,0.1-1.9,0.2c-2,0.2-4.9,1.3-5.6,4.1   c-0.3,1.7,0.4,3.5,1.7,4.6c1.2,0.9,2.7,1.3,4.1,1.3c0.5,0,1.1,0,1.6-0.1l0,0c1.3-0.3,2.4-0.9,3.4-1.7c0.1,0.5,0.2,0.9,0.5,1.3h4   C1557.2,73.2,1557,71.9,1557.1,70.6L1557.1,70.6z M1552.9,70c-0.5,1.2-1.8,2-3.1,1.9l0,0c-0.3,0-0.6,0-1,0c-0.9,0-1.7-0.4-2.1-1.2   c-0.3-0.6-0.2-1.3,0.1-1.8c0.6-1,1.5-1.2,3-1.4l0,0c0.5,0,1-0.1,1.4-0.3c0.7-0.1,1.3-0.3,1.8-0.8C1553.1,67.7,1553,68.9,1552.9,70   L1552.9,70z M1493.7,51.5c-8-2-16.2,2.9-18.2,10.9s2.9,16.2,10.9,18.2c5.5,1.4,11.3-0.5,15-4.8c-1.8,0.4-3.7,0.3-5.4-0.3   c-6.7-2.3-8-8.6-6.3-12.9c1.7-4,6.3-5.9,10.3-4.2c0.5,0.2,0.9,0.4,1.3,0.7c4,2.9,3.7,8.4,3.7,8.5   C1505.7,60.1,1500.9,53.3,1493.7,51.5z M1481.8,68.1c-1.1,0-1.9-0.9-1.9-1.9s0.9-1.9,1.9-1.9s1.9,0.9,1.9,1.9c0,0,0,0,0,0   C1483.7,67.3,1482.9,68.1,1481.8,68.1z M1494.4,64.7h6.1c0-0.9-0.3-1.7-0.9-2.3c-1.1-1.3-3-1.6-4.5-0.8c-1.2,0.6-2.7,3.2-1.8,6.9   c1.1,3.8,5.3,4.4,8,3.7c1.4-0.5,2.5-1.4,3.3-2.6c0.2-0.6,0.3-1.3,0.3-1.9h-10.4L1494.4,64.7L1494.4,64.7z"/>
</g>
</svg>